<?xml version="1.0" standalone="no"?>
<!DOCTYPE svg PUBLIC "-//W3C//DTD SVG 1.1//EN" "http://www.w3.org/Graphics/SVG/1.1/DTD/svg11.dtd" >
<svg xmlns="http://www.w3.org/2000/svg">
<metadata></metadata>
<defs>
<font id="museo500_italic" horiz-adv-x="1091" >
<font-face units-per-em="2048" ascent="1536" descent="-512" />
<missing-glyph horiz-adv-x="550" />
<glyph unicode="&#xfb01;" horiz-adv-x="1208" d="M57 0l170 877h-129l31 159h129l6 35q18 99 59 172.5t88 113t106 63t102 30t88 6.5q26 0 50.5 -1.5t36.5 -2.5l11 -2l-33 -166q-12 6 -57 6q-27 0 -54 -5t-59 -19.5t-58.5 -38.5t-48.5 -65t-32 -95l-6 -31h516q61 0 89 -21.5t28 -70.5q0 -9 -9 -61l-127 -650 q-4 -20 -4 -32q0 -31 37 -31h84l-33 -170h-190q-115 0 -115 94q0 16 6 51l127 654q6 30 6 45q0 33 -36 33h-410l-170 -877h-199zM956 1239l41 207h179l-41 -207h-179z" />
<glyph unicode="&#xfb02;" horiz-adv-x="1196" d="M57 0l170 877h-129l31 159h129l6 35q18 96 59 167.5t88 110t106 62t102 29.5t88 6h333q59 0 87 -21.5t28 -70.5q0 -14 -8 -60l-205 -1061q-6 -30 -6 -32q0 -31 37 -31h86l-33 -170h-192q-113 0 -113 94q0 15 4 47l207 1063q6 30 6 45q0 31 -37 31h-186q-35 0 -69 -8.5 t-72.5 -29.5t-68.5 -66t-42 -109l-6 -31h245l-32 -159h-244l-170 -877h-199z" />
<glyph unicode="&#xfb03;" horiz-adv-x="1851" d="M57 0l170 877h-129l31 159h129l6 35q18 99 59 172.5t88 113t106 63t102 30t88 6.5q26 0 50.5 -1.5t36.5 -2.5l11 -2l-33 -166q-12 6 -57 6q-27 0 -54 -5t-59 -19.5t-58.5 -38.5t-48.5 -65t-32 -95l-6 -31h446l6 35q15 83 45 148.5t70 105.5t82.5 68t90.5 40.5t83.5 17.5 t71.5 5q26 0 50.5 -1.5t35.5 -2.5l12 -2l-35 -166q-9 6 -55 6q-36 0 -70 -9t-72.5 -31.5t-68 -69t-41.5 -113.5l-6 -31h514q61 0 89 -21.5t28 -70.5q0 -9 -9 -61l-127 -650q-4 -20 -4 -32q0 -31 37 -31h84l-33 -170h-190q-115 0 -115 94q0 16 6 51l127 654q7 35 7 45 q0 33 -37 33h-410l-168 -877h-199l170 877h-446l-170 -877h-199zM1599 1239l41 207h179l-41 -207h-179z" />
<glyph unicode="&#xfb04;" horiz-adv-x="1841" d="M57 0l170 877h-129l31 159h129l6 35q18 99 59 172.5t88 113t106 63t102 30t88 6.5q26 0 50.5 -1.5t36.5 -2.5l11 -2l-33 -166q-12 6 -57 6q-27 0 -54 -5t-59 -19.5t-58.5 -38.5t-48.5 -65t-32 -95l-6 -31h446l6 35q17 96 58 167.5t87.5 110t106 62t103 29.5t88.5 6h331 q61 0 89 -21.5t28 -70.5q0 -14 -8 -60l-207 -1061q-6 -30 -6 -32q0 -31 39 -31h84l-33 -170h-190q-115 0 -115 94q0 23 6 47l207 1063q6 30 6 45q0 31 -37 31h-188q-35 0 -69 -8.5t-72.5 -29.5t-68.5 -66t-42 -109l-6 -31h246l-33 -159h-244l-170 -877h-199l170 877h-444 l-170 -877h-199z" />
<glyph horiz-adv-x="0" />
<glyph horiz-adv-x="682" />
<glyph unicode=" "  horiz-adv-x="550" />
<glyph unicode="&#x09;" horiz-adv-x="550" />
<glyph unicode="&#xa0;" horiz-adv-x="550" />
<glyph unicode="!" horiz-adv-x="550" d="M55 0l39 199h203l-39 -199h-203zM143 397l191 1049h207l-219 -1049h-179z" />
<glyph unicode="&#x22;" horiz-adv-x="667" d="M203 1085l73 385h158l-76 -385h-155zM489 1085l76 385h156l-76 -385h-156z" />
<glyph unicode="#" horiz-adv-x="1449" d="M35 391l53 152h268l129 344h-266l55 149h265l151 410h166l-151 -410h319l152 410h165l-151 -410h266l-55 -149h-266l-129 -344h266l-55 -152h-267l-143 -391h-166l143 391h-317l-143 -391h-166l143 391h-266zM522 543h318l129 344h-318z" />
<glyph unicode="$" horiz-adv-x="1101" d="M-4 186l131 142q5 -7 14.5 -18t41.5 -39.5t68.5 -50.5t94.5 -40t119 -18q132 0 217.5 69t85.5 175q0 51 -25 93t-65.5 69.5t-93 56t-106.5 52t-106.5 58.5t-93 74t-65.5 100t-25 135q0 177 131 294.5t330 129.5l39 189h150l-39 -195q79 -12 142.5 -38t108 -73t44.5 -106 q0 -29 -7 -61l-20 -99h-182l8 48q6 21 6 43q0 52 -59 80t-146 28q-140 0 -218.5 -66t-78.5 -161q0 -48 25 -86.5t65.5 -64t93 -52t106.5 -49.5t106.5 -58t93 -75.5t65.5 -103t25 -140.5q0 -184 -128.5 -311t-338.5 -140l-35 -186h-149l36 195q-70 10 -133.5 34t-104 51.5 t-71 54t-43.5 43.5z" />
<glyph unicode="%" horiz-adv-x="1546" d="M10 0l1366 1446h205l-1368 -1446h-203zM186 1133q0 129 109.5 233t245.5 104q124 0 200 -75.5t76 -194.5q0 -131 -109 -233.5t-245 -102.5q-125 0 -201 74t-76 195zM346 1137q0 -53 36 -87t95 -34q70 0 125 54t55 126q0 55 -35.5 90t-93.5 35q-70 0 -126 -55.5 t-56 -128.5zM770 244q0 129 109 233.5t247 104.5q124 0 200.5 -76t76.5 -195q0 -131 -110 -233.5t-246 -102.5q-124 0 -200.5 74.5t-76.5 194.5zM932 248q0 -53 35 -87t94 -34q71 0 125.5 53.5t54.5 126.5q0 55 -35.5 90t-93.5 35q-69 0 -124.5 -56t-55.5 -128z" />
<glyph unicode="&#x26;" horiz-adv-x="1298" d="M33 356q0 139 95 260t245 162v4q-6 2 -15.5 7t-34.5 24.5t-44 45t-34.5 71t-15.5 100.5q0 133 71.5 235t184.5 153.5t246 51.5q46 0 94.5 -7t73.5 -14l25 -7l-78 -158q-56 14 -113 14q-120 0 -209.5 -75t-89.5 -199q0 -178 225 -178h271l39 201h198l-39 -201h191 l-33 -168h-192l-37 -197q-48 -255 -194.5 -380.5t-373.5 -125.5q-214 0 -335 105.5t-121 275.5zM244 375q0 -100 67 -159.5t185 -59.5q142 0 236.5 83t127.5 250l37 189h-276q-98 0 -181.5 -32.5t-139.5 -103t-56 -167.5z" />
<glyph unicode="'" horiz-adv-x="382" d="M203 1085l73 385h160l-76 -385h-157z" />
<glyph unicode="(" horiz-adv-x="565" d="M88 354q0 655 424 1151h180q-426 -531 -426 -1155q0 -285 94 -545h-165q-107 272 -107 549z" />
<glyph unicode=")" horiz-adv-x="567" d="M-109 -195q426 534 426 1156q0 284 -94 544h168q105 -272 105 -549q0 -651 -422 -1151h-183z" />
<glyph unicode="*" horiz-adv-x="966" d="M168 1090l88 167l252 -102l41 291h186l-73 -291l294 102l25 -174l-301 -79l-2 -5l135 -221l-156 -106l-116 243h-4l-205 -241l-133 108l227 230v4z" />
<glyph unicode="+" horiz-adv-x="1255" d="M66 504l30 160h457l100 503h168l-100 -503h457l-29 -160h-457l-98 -504h-168l98 504h-458z" />
<glyph unicode="," horiz-adv-x="495" d="M-111 -207l209 422h199l-254 -422h-154z" />
<glyph unicode="-" horiz-adv-x="860" d="M109 496l32 176h598l-32 -176h-598z" />
<glyph unicode="." horiz-adv-x="466" d="M16 0l39 211h205l-41 -211h-203z" />
<glyph unicode="/" horiz-adv-x="866" d="M-55 -86l831 1610h189l-834 -1610h-186z" />
<glyph unicode="0" horiz-adv-x="1249" d="M102 453q0 83 10.5 173.5t34 190.5t58.5 192.5t89 177t119.5 147t155 99.5t191.5 37q428 0 428 -477q0 -83 -10 -173.5t-34 -190.5t-59 -192.5t-88.5 -177.5t-119.5 -147.5t-156 -99.5t-193 -37q-426 0 -426 478zM311 457q0 -299 224 -299q93 0 170 58.5t126 148.5 t83 203.5t48.5 218.5t14.5 198q0 303 -223 303q-89 0 -165 -56t-126 -144.5t-85.5 -200.5t-51 -221t-15.5 -209z" />
<glyph unicode="1" horiz-adv-x="946" d="M-20 0l30 176h320l180 934l20 88h-4q-23 -31 -86 -82l-159 -133l-99 127l412 336h188l-247 -1270h313l-35 -176h-833z" />
<glyph unicode="2" horiz-adv-x="1175" d="M-8 127q0 85 31.5 159t84.5 130.5t122 107t145 92.5t152.5 82.5t145.5 83t122 87.5t84.5 102t31.5 121q0 90 -58 140t-161 50q-96 0 -165 -40.5t-81 -104.5l-12 -56h-188l22 111q13 70 58.5 125t110 87.5t137 49t147.5 16.5q183 0 292 -95t109 -263q0 -83 -30.5 -157.5 t-82.5 -132t-119 -109t-141.5 -94t-148.5 -82t-141 -77.5t-119 -75.5t-82.5 -81.5t-30.5 -90q0 -22 9.5 -29.5t35.5 -7.5h506q44 0 53 45l19 92h186l-35 -182q-13 -69 -50.5 -100t-106.5 -31h-738q-66 0 -90 30t-24 97z" />
<glyph unicode="3" horiz-adv-x="1138" d="M-12 168l121 139q5 -6 14.5 -16t41.5 -36t67 -45.5t89.5 -35.5t110.5 -16q148 0 256.5 94t108.5 229q0 105 -76.5 162t-198.5 57l-92 -4l-27 107l412 407q15 16 33 31.5t28 22.5l11 8v4q-45 -6 -74 -6h-340q-44 0 -53 -45l-19 -92h-182l35 182q14 69 49.5 100t104.5 31 h761l-28 -141l-471 -463q45 -6 88 -19t89.5 -40t81 -63.5t57 -94t22.5 -127.5q0 -101 -43.5 -195.5t-118 -167t-183 -116.5t-231.5 -44q-81 0 -156.5 20t-125.5 48.5t-88.5 56.5t-55.5 48z" />
<glyph unicode="4" horiz-adv-x="1204" d="M-6 383l22 131l830 932h237l-172 -887h226l-35 -176h-225l-76 -383h-199l74 383h-682zM262 559h451l102 526q4 23 11.5 54t13.5 51l6 20h-4q-45 -65 -80 -104l-500 -543v-4z" />
<glyph unicode="5" horiz-adv-x="1124" d="M-4 164l119 133q5 -6 13.5 -15t38.5 -33t63 -42.5t85 -33.5t107 -15q154 0 269.5 100.5t115.5 245.5q0 114 -76.5 180t-202.5 66q-65 0 -130 -17.5t-98 -34.5l-32 -18l-116 45l174 594q21 69 55 98t102 29h496q71 0 96.5 -32.5t11.5 -102.5l-34 -178h-183l19 92 q6 45 -37 45h-307q-41 0 -53 -45l-80 -267q-6 -23 -13.5 -43t-11.5 -29l-4 -9h4q82 41 201 41q187 0 308.5 -113t121.5 -293q0 -147 -82.5 -271.5t-220.5 -195t-297 -70.5q-59 0 -114.5 10.5t-96.5 27t-77 36.5t-60 40.5t-41 37t-25 27.5z" />
<glyph unicode="6" horiz-adv-x="1191" d="M88 502q0 80 17 170t52.5 184t84.5 183t118 167t149.5 137t181.5 93t210 34q79 0 151 -15t104 -31l32 -15l-86 -166q-9 5 -26.5 13t-71 21t-107.5 13q-98 0 -187 -42t-156 -113t-116.5 -156t-79.5 -180h4q57 62 148 99.5t184 37.5q184 0 291 -109t107 -282 q0 -84 -24 -166.5t-71.5 -155t-112 -128t-151.5 -88t-184 -32.5q-208 0 -334.5 143t-126.5 384zM295 479q0 -82 30.5 -154t92 -119.5t141.5 -47.5q138 0 232 110t94 264q0 106 -64.5 170t-185.5 64q-81 0 -158.5 -35.5t-129.5 -103t-52 -148.5z" />
<glyph unicode="7" horiz-adv-x="1073" d="M59 0l815 1182q21 29 39.5 51.5t26.5 30.5l8 8v4q-25 -6 -78 -6h-454q-47 0 -56 -45l-18 -92h-186l34 182q14 69 49.5 100t104.5 31h873l-27 -139l-907 -1307h-224z" />
<glyph unicode="8" horiz-adv-x="1202" d="M49 356q0 251 324 451q-133 98 -133 244q0 78 35 152.5t98 134t160 96t212 36.5q193 0 304.5 -89t111.5 -240q0 -215 -258 -439q160 -106 160 -266q0 -188 -162.5 -324.5t-398.5 -136.5q-202 0 -327.5 105t-125.5 276zM260 379q0 -104 71.5 -164.5t182.5 -60.5 q130 0 234 77t104 199q0 37 -16 69t-39 54.5t-61.5 47t-71 40t-81.5 39t-79 39.5q-244 -155 -244 -340zM442 1053q0 -34 14.5 -64.5t33 -51.5t57 -46t63.5 -38t77 -38t75 -37q21 17 46 43t63 72t62.5 105.5t24.5 117.5q0 83 -58.5 130.5t-160.5 47.5q-128 0 -212.5 -70 t-84.5 -171z" />
<glyph unicode="9" horiz-adv-x="1189" d="M53 39l82 164q10 -5 27.5 -12.5t70.5 -20t105 -12.5q98 0 187 42t156 113t116.5 156t79.5 180h-5q-56 -62 -147 -98.5t-186 -36.5q-183 0 -289.5 109t-106.5 280q0 104 38.5 205t107 182t172.5 130.5t225 49.5q209 0 335 -141.5t126 -384.5q0 -80 -17 -170t-52.5 -183.5 t-85 -182.5t-118.5 -167.5t-149 -137.5t-181 -93.5t-210 -34.5q-78 0 -148.5 16t-101.5 32zM350 913q0 -104 64 -166.5t182 -62.5q81 0 159.5 35.5t131.5 102t53 145.5q0 128 -72 225.5t-190 97.5q-138 0 -233 -111t-95 -266z" />
<glyph unicode=":" horiz-adv-x="464" d="M12 0l39 211h205l-41 -211h-203zM174 825l39 211h205l-41 -211h-203z" />
<glyph unicode=";" horiz-adv-x="555" d="M-66 -207l185 422h198l-231 -422h-152zM242 825l41 211h202l-41 -211h-202z" />
<glyph unicode="&#x3c;" horiz-adv-x="1255" d="M102 516v135l955 426v-182l-731 -309v-4l731 -310v-182z" />
<glyph unicode="=" horiz-adv-x="1255" d="M131 309v160h977v-160h-977zM131 696v160h977v-160h-977z" />
<glyph unicode="&#x3e;" horiz-adv-x="1255" d="M197 90v182l731 310v4l-731 309v182l954 -426v-135z" />
<glyph unicode="?" horiz-adv-x="964" d="M182 0l41 201h205l-39 -201h-207zM213 1356q7 5 19 13t51 28.5t79.5 36t99.5 28.5t116 13q166 0 273 -89t107 -239q0 -74 -24 -138.5t-63.5 -111.5t-87 -88.5t-98 -79t-93.5 -74t-75 -81t-42 -93.5l-18 -84h-193l19 97q13 66 45.5 124t74.5 100t89.5 81t92.5 74t81.5 71 t59 81.5t22.5 96.5q0 73 -53.5 119.5t-143.5 46.5q-60 0 -122.5 -21.5t-94.5 -42.5l-33 -22z" />
<glyph unicode="@" horiz-adv-x="1609" d="M61 373q0 173 74 334.5t197.5 280.5t293.5 191t353 72q223 0 335.5 -97.5t112.5 -252.5q0 -42 -10 -94l-106 -551h147l-28 -150h-537q-174 0 -276.5 95t-102.5 237q0 84 37 163.5t103 140.5t164 98t212 37h211q2 20 2 36q0 73 -77 123.5t-208 50.5q-138 0 -268 -61 t-223 -160t-149 -229t-56 -264q0 -209 129 -340t352 -131l-32 -158q-187 0 -335 78.5t-231.5 222t-83.5 328.5zM717 449q0 -86 52.5 -139.5t143.5 -53.5h207l94 483h-202q-119 0 -207 -88t-88 -202z" />
<glyph unicode="A" horiz-adv-x="1359" d="M-86 0l35 176h37q25 0 38.5 9t28.5 36l690 1225h218l213 -1229q4 -25 14 -33t35 -8h39l-35 -176h-123q-67 0 -93 24t-38 95l-49 297h-533l-166 -297q-38 -71 -73 -95t-101 -24h-137zM475 588h432l-73 440q-4 34 -8.5 84.5t-6.5 84.5l-2 34h-4q-57 -127 -96 -203z" />
<glyph unicode="B" horiz-adv-x="1259" d="M115 92q0 24 10 76l213 1102h-133l35 176h606q169 0 267.5 -82.5t98.5 -228.5q0 -126 -72.5 -226.5t-178.5 -144.5v-4q83 -34 132.5 -110.5t49.5 -186.5q0 -159 -98 -276.5t-240 -161.5q-82 -25 -182 -25h-392q-116 0 -116 92zM338 207q0 -31 39 -31h260q63 0 108 19 q85 31 136 106.5t51 169.5q0 97 -56 148t-157 51h-293l-80 -416q-8 -36 -8 -47zM459 838h293q105 0 179.5 77t74.5 183q0 81 -48.5 126.5t-140.5 45.5h-274z" />
<glyph unicode="C" horiz-adv-x="1437" d="M86 604q0 132 42 260.5t120.5 236.5t183 191.5t237 130.5t273.5 47q84 0 169 -16.5t161 -49t124 -89t48 -127.5q0 -34 -12 -90l-17 -82h-186l14 78q3 13 3 25q0 35 -22 63q-28 38 -80 58t-105 30t-101 10q-124 0 -241 -52t-204.5 -140t-140.5 -212t-53 -260 q0 -201 117.5 -324.5t320.5 -123.5q130 0 254.5 45.5t216.5 128.5l92 -160q-104 -95 -263 -151t-322 -56q-276 0 -452.5 176.5t-176.5 452.5z" />
<glyph unicode="D" horiz-adv-x="1478" d="M115 92q0 24 10 76l213 1102h-133l35 176h567q296 0 462.5 -150.5t166.5 -433.5q0 -174 -65 -332t-178 -275t-277.5 -186t-352.5 -69h-330q-118 0 -118 92zM338 207q0 -31 39 -31h186q146 0 270.5 54.5t208.5 147t131.5 214.5t47.5 256q0 211 -114.5 316.5t-330.5 105.5 h-233l-197 -1016q-8 -36 -8 -47z" />
<glyph unicode="E" horiz-adv-x="1175" d="M115 92q0 24 10 76l213 1102h-133l35 176h839q119 0 119 -92q0 -20 -8 -74l-29 -147h-188l12 57q6 35 6 49q0 31 -41 31h-407l-88 -453h508l-35 -176h-508l-74 -387q-8 -36 -8 -47q0 -31 39 -31h422q44 0 53 45l18 92h187l-35 -186q-13 -69 -48.5 -98t-101.5 -29h-639 q-118 0 -118 92z" />
<glyph unicode="F" horiz-adv-x="1064" d="M90 0l248 1270h-133l35 176h786q121 0 121 -92q0 -29 -10 -74l-29 -147h-186l10 57q8 46 8 49q0 31 -43 31h-354l-92 -475h493l-33 -177h-495l-121 -618h-205z" />
<glyph unicode="G" horiz-adv-x="1497" d="M84 590q0 137 43 268.5t123.5 241t187 193t241.5 130.5t279 47q91 0 174 -18.5t137 -44.5t95 -52t60 -45l18 -18l-119 -149q-5 6 -15 15t-45.5 33t-74.5 42.5t-102 33.5t-130 15q-131 0 -253 -54.5t-210.5 -146t-142 -216.5t-53.5 -259q0 -205 117.5 -323.5t310.5 -118.5 q74 0 147.5 19.5t126 47.5t94 56t62.5 47l21 20l22 117q6 27 6 45q0 31 -39 31h-92l33 168h186q119 0 119 -94q0 -18 -8 -72l-109 -549h-178l19 94l14 60h-4q-66 -68 -192 -123.5t-279 -55.5q-261 0 -425.5 170t-164.5 445z" />
<glyph unicode="H" horiz-adv-x="1562" d="M90 0l232 1188q8 40 8 51q0 31 -41 31h-84l35 176h196q119 0 119 -92q0 -29 -10 -74l-92 -471h735l100 512q15 69 49.5 97t100.5 28h215l-35 -176h-92q-43 0 -51 -45l-238 -1225h-205l123 635h-737l-123 -635h-205z" />
<glyph unicode="I" horiz-adv-x="673" d="M-18 0l32 176h140l213 1094h-140l33 176h477l-32 -176h-142l-213 -1094h139l-32 -176h-475z" />
<glyph unicode="J" horiz-adv-x="1054" d="M-10 311q0 35 12 113l10 63h205l-10 -55q-8 -62 -8 -84q0 -93 52 -136.5t132 -43.5q44 0 86 14t80 43t66.5 80t41.5 119l150 770q8 40 8 45q0 31 -41 31h-350l35 176h461q118 0 118 -92q0 -18 -8 -72l-172 -885q-18 -90 -54.5 -163t-83.5 -120.5t-105.5 -79.5t-117 -45.5 t-120.5 -13.5q-105 0 -191.5 36.5t-141 114.5t-54.5 185z" />
<glyph unicode="K" horiz-adv-x="1271" d="M90 0l232 1188q8 40 8 49q0 33 -41 33h-84l35 176h196q119 0 119 -92q0 -29 -10 -74l-86 -442h139q82 0 119 51l430 557h237l-466 -600q-24 -31 -48.5 -54.5t-37.5 -31.5l-13 -8v-4q33 -28 51 -91l136 -432q14 -49 75 -49h66l-35 -176h-133q-67 0 -103 26t-53 85 l-153 499q-16 54 -111 54h-135l-129 -664h-205z" />
<glyph unicode="L" horiz-adv-x="1112" d="M117 92q0 24 10 76l197 1020q8 40 8 51q0 31 -41 31h-84l35 176h196q119 0 119 -92q0 -29 -10 -74l-199 -1026q-8 -36 -8 -47q0 -31 39 -31h397q46 0 55 45l17 92h188l-37 -186q-12 -69 -47 -98t-100 -29h-616q-119 0 -119 92z" />
<glyph unicode="M" horiz-adv-x="1787" d="M-61 0l32 176h68q43 0 55 45l336 1225h207l188 -768l35 -182h4q54 98 107 182l489 768h219l-135 -1190q-4 -36 -4 -49q0 -31 35 -31h70l-35 -176h-168q-65 0 -94 23t-29 77q0 8 6 56l86 739q4 37 13.5 90.5t16.5 88.5l7 34h-4q-70 -139 -119 -213l-416 -635h-172 l-168 635q-8 34 -16.5 87.5t-12.5 90.5l-5 37h-5q-24 -131 -47 -215l-209 -772q-19 -67 -51 -95t-96 -28h-188z" />
<glyph unicode="N" horiz-adv-x="1558" d="M-45 0l35 176h86q46 0 55 45l238 1225h180l467 -924q17 -35 38 -84t34 -80l12 -32h4q10 114 26 196l156 799q12 69 47 97t101 28h215l-35 -176h-92q-44 0 -52 -45l-237 -1225h-180l-469 924q-16 35 -36 83.5t-32 79.5l-12 31h-4q-13 -112 -29 -194l-156 -801 q-12 -64 -47 -93.5t-100 -29.5h-213z" />
<glyph unicode="O" horiz-adv-x="1636" d="M84 606q0 115 33.5 226.5t92.5 206t142.5 175t180.5 137t209 88t225 31.5q280 0 455 -172.5t175 -443.5q0 -174 -74 -337t-195.5 -281.5t-283.5 -189.5t-331 -71q-278 0 -453.5 177t-175.5 454zM299 616q0 -198 120 -323t312 -125q120 0 238 54t209 144t147.5 216 t56.5 260q0 195 -120.5 316.5t-311.5 121.5q-122 0 -240.5 -53t-209 -141.5t-146 -212.5t-55.5 -257z" />
<glyph unicode="P" horiz-adv-x="1216" d="M90 0l248 1270h-133l35 176h618q177 0 286 -101t109 -278q0 -159 -86 -286.5t-213 -190.5q-113 -55 -239 -55h-314l-106 -535h-205zM434 711h266q143 0 242.5 95t99.5 243q0 111 -60.5 166t-170.5 55h-268z" />
<glyph unicode="Q" horiz-adv-x="1636" d="M84 606q0 138 47 269.5t131 237.5t193 187t240.5 125.5t265.5 44.5q283 0 459.5 -172.5t176.5 -443.5q0 -173 -71.5 -331.5t-196.5 -280.5l127 -156l-137 -127l-135 168q-222 -152 -465 -152q-281 0 -458 177t-177 454zM299 616q0 -198 120 -323t312 -125q177 0 330 106 l-150 183l138 127l151 -193q85 92 133.5 208.5t48.5 242.5q0 195 -120.5 316.5t-311.5 121.5q-122 0 -240.5 -53t-209 -141.5t-146 -212.5t-55.5 -257z" />
<glyph unicode="R" horiz-adv-x="1288" d="M90 0l248 1270h-133l35 176h618q168 0 270.5 -92t102.5 -256q0 -93 -31.5 -175t-83 -138.5t-112.5 -93.5t-123 -50v-4q27 -23 41 -68l106 -340q9 -29 26 -41t48 -12h59l-35 -176h-110q-71 0 -105.5 24.5t-56.5 90.5l-123 383q-17 50 -39.5 63.5t-81.5 13.5h-200 l-115 -575h-205zM442 752h269q128 0 218.5 91t90.5 226q0 99 -53.5 150t-153.5 51h-270z" />
<glyph unicode="S" d="M-8 186l129 142q5 -7 14.5 -18t41.5 -39.5t68.5 -50.5t95 -40t120.5 -18q132 0 216.5 69t84.5 175q0 57 -32 102.5t-83 76.5t-112.5 60t-123 63.5t-112.5 76.5t-83 108.5t-32 150.5q0 188 147.5 307t364.5 119q95 0 181.5 -23t149.5 -76t63 -126q0 -29 -7 -61l-20 -99 h-184l10 48q6 21 6 43q0 52 -59.5 80t-147.5 28q-138 0 -217.5 -66t-79.5 -161q0 -54 32 -95.5t83 -70.5t113 -56.5t124 -62t113 -77t83 -111t32 -156.5q0 -194 -142 -323.5t-370 -129.5q-89 0 -169.5 21.5t-132.5 52.5t-91 62.5t-56 52.5z" />
<glyph unicode="T" horiz-adv-x="1290" d="M125 1133l39 196q12 66 42 91.5t97 25.5h987q63 0 89 -24t26 -68q0 -29 -10 -74l-29 -147h-182l12 57q6 35 6 49q0 31 -41 31h-284l-248 -1270h-205l248 1270h-291q-46 0 -55 -45l-17 -92h-184z" />
<glyph unicode="U" horiz-adv-x="1511" d="M172 403q0 55 12 117l131 668q9 45 9 51q0 31 -41 31h-84l34 176h195q121 0 121 -92q0 -6 -10 -74l-150 -768q-10 -39 -10 -86q0 -124 75.5 -191t211.5 -67q159 0 272 93t145 255l156 805q13 69 48.5 97t101.5 28h215l-35 -176h-92q-44 0 -52 -45l-143 -738 q-45 -232 -213 -372t-414 -140q-224 0 -353.5 116.5t-129.5 311.5z" />
<glyph unicode="V" horiz-adv-x="1363" d="M139 1270l35 176h133q61 0 87.5 -25.5t37.5 -93.5l146 -891q4 -31 7.5 -80.5t4.5 -83.5l2 -34h4q49 116 96 198l490 891q38 71 74 95t104 24h135l-35 -176h-35q-27 0 -41.5 -9t-29.5 -36l-692 -1225h-220l-215 1225q-4 26 -16.5 35.5t-34.5 9.5h-37z" />
<glyph unicode="W" horiz-adv-x="1970" d="M145 1270l35 176h131q70 0 102.5 -25.5t35.5 -93.5l45 -930l-2 -153h4q26 73 63 153l496 1045h184l66 -1045q2 -36 2 -74t-1 -59l-1 -20h4q24 75 59 153l406 930q30 68 73 93.5t103 25.5h145l-35 -176h-41q-50 0 -69 -45l-555 -1225h-240l-65 913q-4 42 -5 91.5t-1 78.5 l1 29h-4q-39 -105 -84 -197l-442 -915h-240l-77 1221q-3 49 -50 49h-43z" />
<glyph unicode="X" horiz-adv-x="1251" d="M-74 0l602 752l-202 467q-13 29 -33 40t-53 11h-52l35 176h111q72 0 108 -23t62 -88l114 -268l60 -168h4q60 88 123 168l211 268q51 64 92.5 87.5t110.5 23.5h137l-33 -176h-51q-33 0 -56.5 -10t-48.5 -39l-395 -484l322 -737h-222l-186 432q-14 31 -29 71t-23 65l-9 24 h-4q-51 -78 -117 -160l-342 -432h-236z" />
<glyph unicode="Y" horiz-adv-x="1234" d="M143 1270l33 176h92q66 0 99.5 -22.5t62.5 -88.5l154 -364q14 -32 28 -72.5t22 -64.5l7 -25h4q60 90 115 162l289 364q50 66 91.5 88.5t106.5 22.5h125l-35 -176h-47q-54 0 -90 -47l-481 -592l-123 -631h-205l123 631l-252 588q-18 51 -72 51h-47z" />
<glyph unicode="Z" horiz-adv-x="1257" d="M-39 0l27 135l891 1004q28 33 61 66t52 50l20 17v4q-39 -6 -107 -6h-448q-48 0 -56 -45l-18 -92h-188l36 182q12 69 49.5 100t108.5 31h926l-27 -133l-897 -1006q-29 -33 -62.5 -65.5t-52.5 -49.5l-18 -16v-4q39 4 107 4h497q47 0 56 45l16 92h188l-35 -182 q-13 -69 -50.5 -100t-106.5 -31h-969z" />
<glyph unicode="[" horiz-adv-x="567" d="M33 -63l278 1437q13 69 51 100t107 31h209l-31 -149h-119q-44 0 -53 -45l-256 -1309q-9 -45 37 -45h121l-31 -152h-207q-70 0 -95 31.5t-11 100.5z" />
<glyph unicode="\" horiz-adv-x="856" d="M260 1524h170l207 -1610h-168z" />
<glyph unicode="]" horiz-adv-x="565" d="M-92 -195l29 152h118q45 0 54 45l253 1309q9 45 -36 45h-121l31 149h208q69 0 94 -31t11 -100l-279 -1437q-14 -69 -51 -100.5t-106 -31.5h-205z" />
<glyph unicode="^" horiz-adv-x="1255" d="M23 506l409 940h129l410 -940h-180l-295 721l-293 -721h-180z" />
<glyph unicode="_" horiz-adv-x="1101" d="M-147 -160l28 160h1102l-31 -160h-1099z" />
<glyph unicode="`" horiz-adv-x="776" d="M207 1806h194l103 -260h-148z" />
<glyph unicode="a" d="M-10 248q0 88 40.5 157.5t107 113.5t158.5 73t187.5 41t200.5 12h51l4 21q9 65 9 84q0 153 -187 153q-65 0 -124.5 -19t-67.5 -61l-11 -59h-188l20 102q10 54 50.5 93.5t99.5 60.5t120.5 31t127.5 10q182 0 270 -77t88 -216q0 -56 -12 -121l-78 -401q-8 -32 -8 -45 q0 -31 37 -31h84l-33 -170h-174q-113 0 -113 84q0 44 21 113h-4q2 0 -12.5 -23t-45 -55.5t-72.5 -65t-107.5 -55.5t-137.5 -23q-129 0 -215 70.5t-86 202.5zM190 276q0 -68 43.5 -107.5t114.5 -39.5q52 0 103 23.5t91.5 61t74.5 82.5t54.5 88t28.5 79l9 37h-50 q-59 0 -116 -5t-123.5 -19.5t-115 -38t-81.5 -65.5t-33 -96z" />
<glyph unicode="b" horiz-adv-x="1208" d="M29 0l231 1200q6 24 6 45q0 31 -37 31h-82l33 170h189q61 0 88.5 -21.5t27.5 -70.5q0 -14 -8 -60l-61 -317l-25 -94h4q55 79 149 128.5t195 49.5q184 0 285.5 -114.5t101.5 -311.5q0 -114 -31 -218t-85.5 -183.5t-125.5 -138.5t-154 -89.5t-167 -30.5q-109 0 -194.5 49.5 t-122.5 143.5h-4q-1 -39 -9 -82l-16 -86h-188zM309 410q0 -115 59 -189t175 -74q68 0 135 33t122 92t89.5 150.5t34.5 198.5q0 124 -62.5 195t-171.5 71q-104 0 -192.5 -67.5t-138.5 -177t-50 -232.5z" />
<glyph unicode="c" horiz-adv-x="1083" d="M45 434q0 168 84.5 312.5t229 229.5t311.5 85q48 0 99 -7t105 -24.5t94 -44t62 -70.5q14 -29 13 -63q0 -17 -3 -35l-16 -90h-176l8 43q1 7 1 14q0 31 -26 54q-32 29 -78 41t-96 12q-107 0 -201.5 -59t-151 -160.5t-56.5 -218.5q0 -135 77 -218t224 -83q58 0 113.5 13 t93.5 31t67.5 36t43.5 31l14 13l57 -157q-6 -6 -16.5 -15.5t-49 -34.5t-82.5 -44t-115 -34.5t-147 -15.5q-227 0 -355 127t-128 332z" />
<glyph unicode="d" horiz-adv-x="1241" d="M45 401q0 142 47.5 267t126.5 210t181.5 134t211.5 49q105 0 189.5 -47t116.5 -135h4q2 38 8 73l49 248q6 27 6 45q0 31 -37 31h-84l35 170h188q60 0 88.5 -21.5t28.5 -68.5q0 -16 -8 -62l-205 -1048q-6 -27 -6 -45q0 -31 37 -31h84l-33 -170h-174q-111 0 -111 84 q0 40 21 98h-4q-62 -92 -157 -149.5t-214 -57.5q-184 0 -286.5 114.5t-102.5 311.5zM248 418q0 -127 61.5 -199t169.5 -72q81 0 153.5 42.5t122 110.5t78.5 153t29 170q0 116 -58.5 190t-172.5 74q-69 0 -137 -33.5t-123 -92.5t-89 -149t-34 -194z" />
<glyph unicode="e" horiz-adv-x="1105" d="M45 418q0 171 77.5 318t217 236t309.5 89q193 0 293 -104.5t100 -278.5q0 -37 -9 -83t-18 -73l-9 -28h-752q-6 -35 -6 -68q0 -124 78 -201.5t217 -77.5q50 0 102 12.5t91 29.5t71 34.5t49 30.5l16 12l58 -155q-7 -6 -20 -15t-55.5 -32.5t-86.5 -41.5t-109.5 -32.5 t-128.5 -14.5q-224 0 -354.5 123t-130.5 320zM291 639h547q6 26 6 55q0 101 -55 155t-146 54q-116 0 -210.5 -70t-141.5 -194z" />
<glyph unicode="f" horiz-adv-x="653" d="M57 0l170 877h-129l31 159h129l6 35q18 99 59 172.5t88 113t106 63t102 30t88 6.5q26 0 50.5 -1.5t36.5 -2.5l11 -2l-33 -166q-12 6 -57 6q-27 0 -54 -5t-59 -19.5t-58.5 -38.5t-48.5 -65t-32 -95l-6 -31h245l-32 -159h-244l-170 -877h-199z" />
<glyph unicode="g" horiz-adv-x="1220" d="M-10 -342l88 156q12 -8 35 -19t94 -30t143 -19q331 0 391 320q6 35 14 64t13 40l4 12h-4q-125 -170 -319 -170q-187 0 -292.5 115.5t-105.5 304.5q0 88 23 176.5t69.5 170t110.5 144.5t154 100.5t192 37.5q130 0 215.5 -51.5t104.5 -122.5h4q-2 14 2 43q19 106 139 106 h195l-35 -170h-84q-45 0 -54 -43l-153 -790q-24 -121 -82.5 -213t-139 -145t-169.5 -79t-185 -26q-218 0 -368 88zM254 446q0 -122 63 -192t179 -70q69 0 128.5 30t100.5 79.5t70.5 112.5t43 129.5t13.5 130.5q0 223 -238 223q-110 0 -194 -66t-125 -165.5t-41 -211.5z" />
<glyph unicode="h" horiz-adv-x="1253" d="M29 0l233 1198q1 6 2.5 16.5t2.5 18.5t1 12q0 31 -37 31h-84l33 170h191q61 0 88.5 -21.5t27.5 -70.5q0 -14 -8 -60l-73 -379l-23 -90h4q26 38 63 75t90 75.5t124 62t147 23.5q145 0 220 -73t75 -208q0 -60 -12 -127l-82 -420q-4 -20 -4 -32q0 -31 36 -31h84l-32 -170 h-191q-117 0 -117 94q0 19 7 47l94 480q10 55 10 100q0 158 -160 158q-100 0 -191.5 -60.5t-149 -150t-76.5 -185.5l-95 -483h-198z" />
<glyph unicode="i" horiz-adv-x="559" d="M84 94q0 28 4 51l127 646q6 30 6 45q0 30 -37 30h-84l33 170h189q61 0 88.5 -21.5t27.5 -70.5q0 -15 -8 -61l-127 -650q-4 -20 -4 -32q0 -31 37 -31h84l-33 -170h-190q-113 0 -113 94zM305 1239l41 207h178l-41 -207h-178z" />
<glyph unicode="j" horiz-adv-x="522" d="M-287 -418l33 170q18 -2 43 -2q221 0 268 240l156 801q6 30 6 45q0 30 -37 30h-84l35 170h189q59 0 87.5 -21.5t28.5 -68.5q0 -9 -8 -63l-178 -920q-19 -100 -62.5 -174t-92 -113t-109.5 -62.5t-104 -29.5t-87 -6zM303 1239l41 207h178l-39 -207h-180z" />
<glyph unicode="k" horiz-adv-x="1073" d="M29 0l231 1200q6 24 6 45q0 31 -37 31h-82l33 170h189q61 0 88.5 -21.5t27.5 -70.5q0 -14 -8 -60l-123 -639h90q66 0 105 45l307 336h240l-359 -387q-24 -25 -48 -44.5t-36 -26.5l-12 -7v-4q24 -12 49 -78l105 -278q9 -24 27 -32.5t57 -8.5h63l-33 -170h-135 q-68 0 -95.5 18.5t-49.5 77.5l-127 344q-17 47 -90 47h-90l-97 -487h-196z" />
<glyph unicode="l" horiz-adv-x="548" d="M72 94q0 23 6 47l205 1059q6 30 6 45q0 31 -37 31h-84l35 170h188q61 0 89 -21.5t28 -70.5q0 -14 -8 -60l-207 -1061q-6 -30 -6 -32q0 -31 39 -31h84l-33 -170h-191q-114 0 -114 94z" />
<glyph unicode="m" horiz-adv-x="1923" d="M59 0l154 793q6 21 6 41q0 32 -39 32h-80l31 170h188q111 0 111 -92q0 -42 -22 -123h4q25 38 60 75.5t86 76.5t120 63.5t143 24.5q120 0 186.5 -61.5t75.5 -176.5h4q26 39 65 78t91.5 76.5t122 60.5t141.5 23q134 0 202.5 -69t68.5 -199q0 -41 -15 -129l-84 -431 q-4 -20 -4 -32q0 -31 37 -31h84l-33 -170h-190q-117 0 -117 94q0 23 6 47l94 482q13 60 13 106q0 150 -139 150q-92 0 -177 -61.5t-140 -153.5t-75 -193l-92 -471h-198l122 623q13 60 13 106q0 150 -140 150q-96 0 -181.5 -62t-139 -154t-72.5 -192l-92 -471h-199z" />
<glyph unicode="n" horiz-adv-x="1284" d="M59 0l154 793q6 21 6 41q0 32 -39 32h-80l31 170h188q111 0 111 -92q0 -31 -24 -129h4q20 30 46 60.5t67 65t86.5 60.5t107 43t125.5 17q145 0 220 -73t75 -208q0 -54 -13 -127l-82 -420q-4 -20 -4 -32q0 -31 37 -31h84l-33 -170h-190q-117 0 -117 94q0 23 6 47l95 480 q10 55 10 100q0 158 -160 158q-100 0 -191.5 -60.5t-149.5 -150t-77 -185.5l-94 -483h-199z" />
<glyph unicode="o" horiz-adv-x="1257" d="M43 432q0 130 55 248t145 200.5t209.5 131.5t245.5 49q212 0 346 -126t134 -327q0 -175 -94 -322t-244.5 -229t-317.5 -82q-212 0 -345.5 127t-133.5 330zM246 440q0 -130 81 -211.5t212 -81.5q107 0 207 58.5t164.5 164t64.5 228.5q0 129 -82 210t-211 81 q-108 0 -208 -58.5t-164 -163t-64 -227.5z" />
<glyph unicode="p" horiz-adv-x="1241" d="M-23 -410l234 1194q6 35 6 52q0 16 -7.5 23t-27.5 7h-84l33 170h184q109 0 109 -75q0 -38 -21 -99h5q58 88 151 143.5t215 55.5q181 0 283 -115.5t102 -318.5q0 -138 -48 -261t-127 -207.5t-181.5 -134t-210.5 -49.5q-103 0 -185.5 47t-121.5 134h-4q-5 -44 -15 -97 l-90 -469h-199zM342 418q0 -119 58 -195t169 -76q69 0 137.5 33t124 91t90.5 147.5t35 193.5q0 132 -61.5 203.5t-171.5 71.5q-103 0 -192 -68t-139 -176t-50 -225z" />
<glyph unicode="q" horiz-adv-x="1239" d="M47 397q0 144 47.5 269.5t126.5 211t182.5 134.5t214.5 49q112 0 192.5 -45.5t115.5 -132.5h4q14 77 44.5 115t102.5 38h197l-31 -170h-84q-46 0 -55 -45l-240 -1231h-198l92 473q4 24 10.5 48t11.5 37l4 12h-4q-49 -76 -138.5 -130.5t-205.5 -54.5q-185 0 -287 113.5 t-102 308.5zM250 414q0 -125 62 -196t171 -71q105 0 194 70t138 179.5t49 228.5q0 115 -58.5 188.5t-172.5 73.5q-68 0 -135.5 -33t-123 -91.5t-90 -150t-34.5 -198.5z" />
<glyph unicode="r" horiz-adv-x="774" d="M59 0l158 821q1 6 1 12q0 33 -38 33h-82l33 170h191q59 0 84.5 -21.5t25.5 -66.5q0 -19 -12.5 -80.5t-24.5 -95.5h4q58 118 160.5 197.5t222.5 79.5q22 0 52 -5l-39 -196q-24 6 -56 6q-93 0 -178 -62.5t-144.5 -167t-82.5 -229.5l-76 -395h-199z" />
<glyph unicode="s" horiz-adv-x="927" d="M-25 152l103 131q4 -6 12.5 -16t38 -35t62.5 -44t86 -35t110 -16q89 0 147 40t58 106q0 25 -11.5 47t-24 35.5t-43.5 30.5t-46 23.5t-55 22.5q-50 20 -84 35t-78 43t-70 57.5t-44.5 74.5t-18.5 98q0 99 58 171.5t147.5 106t197.5 33.5q65 0 128.5 -13t117.5 -39 q56 -26 84 -71q20 -32 19 -69q0 -16 -3 -33l-16 -74h-174l6 39q1 7 1 13q0 35 -38 59q-45 28 -129 28q-90 0 -144.5 -37.5t-54.5 -99.5q0 -33 15 -59t46.5 -46t57.5 -32t71 -30q9 -3 13 -5q35 -14 57 -24t54.5 -26.5t53 -31.5t44 -38t37 -47t22.5 -56t9 -68 q0 -143 -115.5 -234.5t-298.5 -91.5q-79 0 -150.5 18t-116.5 44t-78.5 52.5t-47.5 44.5z" />
<glyph unicode="t" horiz-adv-x="702" d="M102 877l33 159h139l56 285h194l-55 -285h248l-31 -159h-250l-90 -467q-8 -58 -8 -78q0 -164 178 -164l51 4l-35 -176q-28 -4 -71 -4q-40 0 -80 6.5t-86.5 26t-81.5 50.5t-58.5 84.5t-23.5 123.5q0 49 12 104l95 490h-136z" />
<glyph unicode="u" horiz-adv-x="1294" d="M109 866l32 170h193q115 0 115 -94q0 -16 -7 -47l-92 -477q-12 -52 -12 -103q0 -155 156 -155q99 0 190 65.5t149 161.5t78 197l88 452h199l-154 -792q-6 -18 -6 -41q0 -33 39 -33h82l-33 -170h-188q-111 0 -111 92q0 23 25 131h-4q-24 -39 -60.5 -78t-89.5 -79.5 t-125.5 -65.5t-150.5 -25q-141 0 -216 73t-75 208q0 58 12 129l82 418q6 30 6 35q0 28 -38 28h-84z" />
<glyph unicode="v" horiz-adv-x="1087" d="M70 866l32 170h101q57 0 86.5 -26.5t40.5 -83.5l106 -590l13 -135h4q30 80 61 135l338 596q34 62 67.5 83t100.5 21h119l-35 -170h-27q-43 0 -67 -41l-478 -825h-229l-158 819q-5 25 -16 36t-33 11h-26z" />
<glyph unicode="w" horiz-adv-x="1720" d="M70 866l34 170h132q54 0 82 -27t34 -87l64 -613q3 -24 4 -51.5t0 -43.5v-15h4q22 57 49 110l363 723h186l82 -723l6 -110h4q20 57 47 110l303 617q32 66 64.5 88t101.5 22h139l-32 -170h-29q-50 0 -72 -41l-434 -825h-223l-86 666l-8 112h-4q-23 -59 -50 -112l-339 -666 h-226l-112 825q-3 23 -14.5 32t-35.5 9h-34z" />
<glyph unicode="x" horiz-adv-x="1060" d="M-61 0l458 541l-145 286q-13 23 -31.5 31t-50.5 8h-59l32 170h127q60 0 90 -23t60 -85l94 -197l23 -63h4q27 38 47 65l157 195q55 67 89 87.5t102 20.5h149l-34 -170h-58q-34 0 -55 -7t-41 -30l-274 -315l274 -514h-213l-174 330l-25 57h-4q-16 -28 -41 -57l-272 -330 h-229z" />
<glyph unicode="y" horiz-adv-x="1110" d="M-172 -328l86 142l3 -4l7 -7l10 -10t13.5 -11.5t16.5 -12t20 -11.5t23.5 -9t26.5 -6.5t29 -2.5q113 0 207 151l74 117l-194 817q-6 24 -18.5 32.5t-39.5 8.5h-24l32 170h133q47 0 69.5 -24.5t33.5 -79.5l121 -584q4 -24 7.5 -55t5.5 -51l1 -19h4q28 72 57 125l330 584 q35 60 72 82t100 22h127l-33 -170h-26q-26 0 -43 -8.5t-31 -32.5l-608 -1018q-69 -118 -162.5 -177.5t-200.5 -59.5q-39 0 -77 10.5t-64 25.5t-47 30t-31 26z" />
<glyph unicode="z" horiz-adv-x="1073" d="M-35 0l29 145l637 617l112 104v4q-43 -4 -92 -4h-289q-46 0 -55 -45l-14 -69h-176l28 153q13 69 51 100t107 31h739l-28 -145l-641 -619q-25 -25 -54 -50.5t-45 -38.5l-16 -13v-4q39 4 107 4h329q44 0 54 47l12 68h178l-31 -154q-13 -69 -50.5 -100t-106.5 -31h-785z" />
<glyph unicode="{" horiz-adv-x="649" d="M45 578l35 176q7 1 19 3t44.5 16t60 36t55 67t38.5 105l37 184q71 367 444 342l-28 -151q-22 2 -46 -0.5t-56.5 -14.5t-59.5 -34.5t-51 -65t-35 -100.5l-43 -226q-11 -57 -38 -104t-56.5 -72t-57.5 -42.5t-47 -22.5l-18 -6v-4q5 -2 13 -6.5t28.5 -22t36.5 -39t29 -60 t13 -83.5q0 -25 -6 -60l-43 -219q-8 -54 -8 -76q0 -40 12.5 -69t32 -42.5t43 -22.5t45.5 -9h39l-28 -152q-21 -4 -50 -4q-26 0 -55.5 4.5t-69.5 21.5t-70.5 44.5t-52.5 78.5t-22 118q0 39 10 104l35 184q6 34 6 60q0 43 -14 75.5t-33.5 48.5t-39.5 26t-34 12z" />
<glyph unicode="|" horiz-adv-x="643" d="M240 -326v1948h176v-1948h-176z" />
<glyph unicode="}" horiz-adv-x="649" d="M-113 -199l31 154h46t57 14t58.5 35.5t50.5 64.5t34 101l49 244q11 59 37.5 107t56 74t58 44t47.5 23l18 6v4q-5 2 -13 6t-29 21t-37 38t-29 58.5t-13 81.5q0 27 6 61l39 203q8 54 8 71q0 40 -13 68.5t-32 43.5t-44.5 23t-45 9t-39.5 0l31 151q27 6 61.5 2t70 -11 t69.5 -28t60.5 -49t42.5 -73.5t16 -102.5q0 -44 -13 -104l-30 -164q-7 -40 -7 -59q0 -31 7.5 -57t20 -42.5t27 -29.5t29 -19t27 -10t20.5 -5l7 -1l-35 -176q-4 0 -10.5 -1t-25.5 -7t-37 -14.5t-41.5 -26.5t-42 -40.5t-35.5 -59t-25 -79.5l-41 -205q-18 -93 -56.5 -161 t-83 -104t-102 -56t-105 -23.5t-100.5 0.5z" />
<glyph unicode="~" horiz-adv-x="1193" d="M104 418q0 174 74.5 260t210.5 86q60 0 108 -20.5t80 -50t61 -59.5t65 -50.5t79 -20.5q51 0 83.5 31.5t43.5 72t11 89.5h161q0 -175 -74.5 -260.5t-209.5 -85.5q-60 0 -108.5 20.5t-80.5 49.5t-61 58t-66 49.5t-80 20.5q-38 0 -65.5 -17.5t-42 -46.5t-21 -60.5 t-6.5 -65.5h-162z" />
<glyph unicode="&#xa1;" horiz-adv-x="516" d="M-45 -410l219 1049h178l-190 -1049h-207zM199 838l39 198h204l-41 -198h-202z" />
<glyph unicode="&#xa2;" horiz-adv-x="1146" d="M98 602q0 128 43 250t116 217t177.5 157t220.5 72l33 172h146l-35 -180q56 -10 104 -32.5t79.5 -50.5t57 -59.5t39.5 -60.5t23.5 -53t12.5 -38l3 -15l-180 -68q-1 4 -2.5 11.5t-8.5 28t-17.5 39.5t-29.5 42.5t-43 40t-60 28t-79 11.5q-112 0 -203.5 -69.5t-142.5 -186 t-51 -252.5q0 -125 63 -198.5t183 -73.5q57 0 111 20.5t89.5 49.5t63 58t40.5 50l13 20l172 -71q-3 -6 -9 -17t-27.5 -42t-46.5 -59.5t-65.5 -64.5t-84.5 -62.5t-104 -47t-124 -25.5l-32 -170h-146l35 181q-155 31 -244.5 148t-89.5 300z" />
<glyph unicode="&#xa3;" horiz-adv-x="1187" d="M-14 0l34 176h121l95 477h-99l29 144h96l57 293q33 164 170.5 272t321.5 108q61 0 118.5 -14.5t95.5 -35t67.5 -40.5t43.5 -34l13 -15l-129 -125q-3 3 -9.5 8.5t-27.5 20t-44.5 25t-59 19.5t-72.5 9q-111 0 -189.5 -63t-97.5 -158l-53 -270h377l-27 -144h-377l-94 -477 h445q44 0 53 45l18 92h187l-35 -182q-13 -69 -51 -100t-107 -31h-870z" />
<glyph unicode="&#xa5;" horiz-adv-x="1347" d="M201 418l22 129h332l16 84l-39 90h-280l27 129h196l-153 369q-21 51 -74 51h-47l35 176h90q66 0 99 -22.5t62 -88.5l154 -364q15 -32 29 -72.5t21 -64.5l7 -25h4q60 90 117 162l287 364q51 66 92.5 88.5t106.5 22.5h125l-35 -176h-45q-54 0 -93 -47l-301 -373h189 l-25 -129h-270l-74 -90l-16 -84h325l-24 -129h-328l-80 -418h-204l81 418h-329z" />
<glyph unicode="&#xa7;" horiz-adv-x="872" d="M-35 -16l111 120q8 -7 22 -17.5t62 -28t100 -17.5q126 0 196 80t68 207l15 788h157l-12 -788q2 -125 -46.5 -227t-147.5 -165t-232 -63q-52 0 -101.5 11.5t-82.5 27.5t-59 32.5t-38 27.5zM199 227l12 789q-3 125 45 227.5t147 164.5t232 62q53 0 102.5 -11.5t83 -27.5 t59.5 -32t38 -27l12 -12l-111 -119q-8 7 -22 17.5t-62 28.5t-100 18q-125 0 -195.5 -81t-68.5 -208l-15 -789h-157z" />
<glyph unicode="&#xa8;" horiz-adv-x="1026" d="M268 1599l41 207h152l-41 -207h-152zM606 1599l41 207h152l-41 -207h-152z" />
<glyph unicode="&#xa9;" horiz-adv-x="1660" d="M121 723q0 153 57.5 291.5t155 238.5t232 158.5t282.5 58.5q202 0 371 -99.5t266.5 -271t97.5 -376.5q0 -153 -57.5 -291.5t-155.5 -238.5t-234.5 -159t-287.5 -59q-197 0 -364.5 99.5t-265 272t-97.5 376.5zM272 723q0 -168 76 -308t208 -220t292 -80q122 0 231 47 t187 128t123 194t45 239t-45 239t-123 194t-187 128t-231 47q-160 0 -292 -80t-208 -220t-76 -308zM461 721q0 81 28.5 155t79.5 130.5t128 90t167 33.5q66 0 125 -21t95.5 -50.5t63.5 -59t38 -50.5l12 -21l-125 -68q-3 5 -8.5 14t-25 31t-41 39t-57 31t-73.5 14 q-116 0 -185 -78.5t-69 -189.5q0 -114 68 -191t186 -77q38 0 73.5 13.5t58.5 32.5t40 37.5t25 31.5l8 14l125 -68q-4 -8 -12 -22t-37.5 -49t-64.5 -61.5t-94.5 -48.5t-125.5 -22q-180 0 -291.5 120.5t-111.5 289.5z" />
<glyph unicode="&#xaa;" horiz-adv-x="901" d="M119 543l22 116h639l-22 -116h-639zM201 958q0 55 24 97.5t65.5 68t85.5 42.5t97 24t87 9.5t67 2.5h26q6 34 6 55q0 46 -24.5 67.5t-79.5 21.5q-92 0 -96 -37l-8 -41h-140l17 82q10 55 78.5 85.5t171.5 30.5q231 0 231 -186q0 -44 -8 -80l-47 -244q-6 -26 20 -26h53 l-26 -133h-113q-85 0 -74 106h-4q-3 -5 -9 -13t-26.5 -28.5t-44 -36t-61 -28.5t-78.5 -13q-81 0 -135.5 44.5t-54.5 129.5zM354 981q0 -35 23 -55.5t65 -20.5q71 0 124 57t69 142h-21q-260 0 -260 -123z" />
<glyph unicode="&#xab;" horiz-adv-x="1087" d="M33 582l393 417h209l-412 -430l262 -411h-188zM440 582l426 417h211l-446 -430l262 -411h-188z" />
<glyph unicode="&#xac;" horiz-adv-x="1327" d="M170 696v160h977v-547h-166v387h-811z" />
<glyph unicode="&#xad;" horiz-adv-x="860" d="M109 496l32 176h598l-32 -176h-598z" />
<glyph unicode="&#xae;" horiz-adv-x="1660" d="M121 723q0 153 57.5 291.5t155 238.5t232 158.5t282.5 58.5q202 0 371 -99.5t266.5 -271t97.5 -376.5q0 -153 -57.5 -291.5t-155.5 -238.5t-234.5 -159t-287.5 -59q-197 0 -364.5 99.5t-265 272t-97.5 376.5zM272 723q0 -168 76 -308t208 -220t292 -80q122 0 231 47 t187 128t123 194t45 239t-45 239t-123 194t-187 128t-231 47q-160 0 -292 -80t-208 -220t-76 -308zM600 340v772h297q109 0 176.5 -64t67.5 -171q0 -82 -44 -136.5t-98 -68.5v-4q9 -8 27 -43l148 -285h-160l-144 299h-127v-299h-143zM743 745h123q58 0 91.5 35t33.5 97 q0 59 -32.5 91.5t-90.5 32.5h-125v-256z" />
<glyph unicode="&#xaf;" horiz-adv-x="950" d="M207 1606l26 139h521l-27 -139h-520z" />
<glyph unicode="&#xb0;" horiz-adv-x="772" d="M174 1130q0 133 108 236.5t246 103.5q120 0 198.5 -76t78.5 -190q0 -135 -108.5 -237.5t-245.5 -102.5q-120 0 -198.5 75.5t-78.5 190.5zM334 1139q0 -56 35 -90.5t94 -34.5q73 0 127.5 54t54.5 128q0 56 -36 91.5t-93 35.5q-74 0 -128 -55.5t-54 -128.5z" />
<glyph unicode="&#xb1;" horiz-adv-x="1255" d="M82 504v160h457v503h168v-503h456v-160h-456v-504h-168v504h-457zM115 -195h1018v-159h-1018v159z" />
<glyph unicode="&#xb2;" horiz-adv-x="837" d="M102 621q0 69 24 126.5t63 96t89 72.5t102.5 57.5t102.5 50.5t89 52t63 61.5t24 79.5q0 48 -29.5 75t-86.5 27q-53 0 -91.5 -21.5t-43.5 -50.5l-11 -49h-139l16 90q13 77 97 126.5t190 49.5q113 0 185.5 -60.5t72.5 -172.5q0 -68 -30.5 -125t-78.5 -96t-107 -72.5 t-117.5 -61t-106.5 -54t-78.5 -59.5t-30.5 -71q0 -9 4 -11.5t15 -2.5h303q19 0 22 18l13 70h141l-25 -127q-14 -94 -112 -94h-449q-49 0 -64.5 16t-15.5 60z" />
<glyph unicode="&#xb3;" horiz-adv-x="790" d="M86 668l100 100q3 -4 8.5 -10.5t25 -23t41 -29t57 -23t73.5 -10.5q77 0 136 54t59 130q0 56 -46 87.5t-110 31.5h-63l-21 72l240 235q11 11 24.5 22t21.5 16l7 5v4q-28 -6 -61 -6h-181q-19 0 -22 -20l-13 -64h-133l23 109q11 56 35.5 77t81.5 21h473l-19 -98l-276 -267 q75 -15 134.5 -71t59.5 -154q0 -127 -101.5 -226.5t-248.5 -99.5q-58 0 -110.5 14t-86.5 34.5t-59.5 41t-36.5 34.5z" />
<glyph unicode="&#xb4;" horiz-adv-x="794" d="M215 1546l199 260h204l-241 -260h-162z" />
<glyph unicode="&#xb6;" horiz-adv-x="1212" d="M141 948q15 135 100 250.5t210 181.5t258 66h569l-33 -176h-401l-269 -1372h-151l115 596q-181 0 -300 131.5t-98 322.5zM702 -102l244 1255h154l-244 -1255h-154z" />
<glyph unicode="&#xb7;" horiz-adv-x="464" d="M106 489l39 211h205l-41 -211h-203z" />
<glyph unicode="&#xb8;" horiz-adv-x="851" d="M186 -410l23 119q39 -14 84 -14q46 0 78 18.5t32 57.5q0 26 -25 39.5t-69 13.5l-39 -4l103 227l96 -20l-2 -17l-47 -112q49 -9 86 -43t37 -88q0 -50 -22.5 -88.5t-59 -60t-76.5 -32t-82 -10.5q-31 0 -60.5 3.5t-42.5 6.5z" />
<glyph unicode="&#xb9;" horiz-adv-x="737" d="M96 545l27 137h190l97 494l14 67h-4q-13 -21 -31 -35l-96 -78l-76 101l264 215h137l-149 -764h188l-26 -137h-535z" />
<glyph unicode="&#xba;" horiz-adv-x="931" d="M133 543l23 116h639l-23 -116h-639zM209 1071q0 108 58 200.5t151.5 144.5t197.5 52q135 0 219.5 -80t84.5 -206q0 -109 -60 -201.5t-154 -143.5t-196 -51q-135 0 -218 79.5t-83 205.5zM358 1083q0 -74 45.5 -118.5t118.5 -44.5q95 0 171.5 74t76.5 180q0 72 -47 117.5 t-119 45.5q-95 0 -170.5 -74.5t-75.5 -179.5z" />
<glyph unicode="&#xbb;" d="M4 158l436 426l-260 415h195l260 -421l-426 -420h-205zM438 158l416 426l-260 415h194l261 -421l-406 -420h-205z" />
<glyph unicode="&#xbc;" horiz-adv-x="1785" d="M94 545l29 137h190l95 494l16 67h-4q-15 -21 -33 -35l-96 -78l-74 101l264 215h135l-147 -764h182l-28 -137h-529zM414 0l870 1446h160l-869 -1446h-161zM932 231l18 95l506 577h178l-104 -538h135l-27 -134h-135l-45 -231h-155l45 231h-416zM1124 362q27 3 41 3h211 l56 284l16 74h-4q-21 -28 -41 -55l-244 -269l-35 -32v-5z" />
<glyph unicode="&#xbd;" horiz-adv-x="1777" d="M88 545l29 137h190l94 494l17 67h-4q-15 -21 -33 -35l-96 -78l-74 101l264 215h135l-147 -764h184l-29 -137h-530zM383 0l870 1446h160l-868 -1446h-162zM958 78q0 62 19 114t51 89t73.5 68.5t88 55.5t92.5 46.5t87.5 45t73.5 47t51 57t19 71.5q0 104 -114 104 q-53 0 -92.5 -21.5t-44.5 -49.5l-9 -50h-141l16 88q15 78 97.5 127.5t189.5 49.5q113 0 185.5 -61t72.5 -173q0 -68 -30.5 -125t-78.5 -96t-107 -72t-117.5 -60.5t-106.5 -54t-78.5 -60t-30.5 -71.5q0 -9 4 -11.5t15 -2.5h305q17 0 20 19l15 69h139l-23 -125 q-9 -51 -35.5 -73.5t-76.5 -22.5h-449q-49 0 -64.5 16.5t-15.5 61.5z" />
<glyph unicode="&#xbe;" horiz-adv-x="1787" d="M94 668l101 100q3 -4 8.5 -10.5t25 -23t41.5 -29t57.5 -23t73.5 -10.5q75 0 134 54t59 130q0 56 -45.5 87.5t-110.5 31.5h-63l-21 72l242 235q11 11 24 22t20 16l7 5v4q-28 -6 -61 -6h-178q-19 0 -25 -20l-12 -64h-131l22 109q11 56 35.5 77t79.5 21h473l-19 -98 l-276 -267q77 -15 137 -71t60 -154q0 -127 -103 -226.5t-250 -99.5q-57 0 -109.5 14t-86.5 34.5t-60 41t-37 34.5zM412 0l870 1446h160l-869 -1446h-161zM934 231l18 95l506 577h178l-104 -538h135l-27 -134h-135l-45 -231h-155l45 231h-416zM1126 362q27 3 41 3h211l56 284 l16 74h-4q-21 -28 -41 -55l-244 -269l-35 -32v-5z" />
<glyph unicode="&#xbf;" horiz-adv-x="964" d="M-16 -111q0 74 24 138.5t63.5 111.5t87 88.5t98 79t93.5 74t75 81t42 93.5l18 84h193l-19 -96q-13 -66 -45.5 -124t-74 -100.5t-89 -81t-92.5 -74t-82 -71.5t-59 -81.5t-22 -96.5q0 -73 53.5 -119.5t142.5 -46.5q60 0 122.5 21.5t94.5 42.5l33 22l88 -153q-7 -5 -19 -13 t-50.5 -28.5t-79 -36t-99.5 -28.5t-116 -13q-166 0 -273.5 89t-107.5 238zM514 836l39 200h207l-41 -200h-205z" />
<glyph unicode="&#xc0;" horiz-adv-x="1359" d="M-86 0l35 176h37q25 0 38.5 9t28.5 36l690 1225h218l213 -1229q4 -25 14 -33t35 -8h39l-35 -176h-123q-67 0 -93 24t-38 95l-49 297h-533l-166 -297q-38 -71 -73 -95t-101 -24h-137zM475 588h432l-73 440q-4 34 -8.5 84.5t-6.5 84.5l-2 34h-4q-57 -127 -96 -203z M653 1806h195l102 -260h-147z" />
<glyph unicode="&#xc1;" horiz-adv-x="1359" d="M-86 0l35 176h37q25 0 38.5 9t28.5 36l690 1225h218l213 -1229q4 -25 14 -33t35 -8h39l-35 -176h-123q-67 0 -93 24t-38 95l-49 297h-533l-166 -297q-38 -71 -73 -95t-101 -24h-137zM475 588h432l-73 440q-4 34 -8.5 84.5t-6.5 84.5l-2 34h-4q-57 -127 -96 -203z M795 1546l198 260h205l-242 -260h-161z" />
<glyph unicode="&#xc2;" horiz-adv-x="1359" d="M-86 0l35 176h37q25 0 38.5 9t28.5 36l690 1225h218l213 -1229q4 -25 14 -33t35 -8h39l-35 -176h-123q-67 0 -93 24t-38 95l-49 297h-533l-166 -297q-38 -71 -73 -95t-101 -24h-137zM475 588h432l-73 440q-4 34 -8.5 84.5t-6.5 84.5l-2 34h-4q-57 -127 -96 -203z M602 1546l227 260h183l131 -260h-158l-76 164h-4l-137 -164h-166z" />
<glyph unicode="&#xc3;" horiz-adv-x="1359" d="M-86 0l35 176h37q25 0 38.5 9t28.5 36l690 1225h218l213 -1229q4 -25 14 -33t35 -8h39l-35 -176h-123q-67 0 -93 24t-38 95l-49 297h-533l-166 -297q-38 -71 -73 -95t-101 -24h-137zM475 588h432l-73 440q-4 34 -8.5 84.5t-6.5 84.5l-2 34h-4q-57 -127 -96 -203z M524 1548q45 260 248 260q43 0 76 -14.5t52.5 -35t36 -40.5t37 -34.5t46.5 -14.5q42 0 69.5 40t38.5 93h136q-25 -135 -90 -197.5t-158 -62.5q-43 0 -76 14.5t-53 35t-37 40.5t-37.5 34.5t-46.5 14.5q-42 0 -70.5 -40t-38.5 -93h-133z" />
<glyph unicode="&#xc4;" horiz-adv-x="1359" d="M-86 0l35 176h37q25 0 38.5 9t28.5 36l690 1225h218l213 -1229q4 -25 14 -33t35 -8h39l-35 -176h-123q-67 0 -93 24t-38 95l-49 297h-533l-166 -297q-38 -71 -73 -95t-101 -24h-137zM475 588h432l-73 440q-4 34 -8.5 84.5t-6.5 84.5l-2 34h-4q-57 -127 -96 -203z M627 1599l41 207h151l-41 -207h-151zM965 1599l41 207h151l-41 -207h-151z" />
<glyph unicode="&#xc5;" horiz-adv-x="1359" d="M-86 0l35 176h37q25 0 38.5 9t28.5 36l690 1225h218l213 -1229q4 -25 14 -33t35 -8h39l-35 -176h-123q-67 0 -93 24t-38 95l-49 297h-533l-166 -297q-38 -71 -73 -95t-101 -24h-137zM475 588h432l-73 440q-4 34 -8.5 84.5t-6.5 84.5l-2 34h-4q-57 -127 -96 -203z M727 1653q0 78 59.5 127t133.5 49q64 0 108.5 -36.5t44.5 -98.5q0 -76 -59.5 -125t-134.5 -49q-64 0 -108 36.5t-44 96.5zM829 1657q0 -25 15 -39t41 -14q37 0 61.5 25t24.5 63q0 25 -15.5 40t-42.5 15q-33 0 -58.5 -25.5t-25.5 -64.5z" />
<glyph unicode="&#xc6;" horiz-adv-x="1759" d="M-102 0l34 176h31q26 0 39.5 8.5t30.5 36.5l715 1225h915q119 0 119 -92q0 -20 -8 -74l-29 -147h-189l13 57q6 35 6 49q0 31 -41 31h-395l-88 -453h495l-35 -176h-495l-74 -387q-8 -36 -8 -47q0 -31 37 -31h411q45 0 54 45l18 92h186l-34 -186q-13 -69 -48.5 -98 t-101.5 -29h-629q-116 0 -116 92q0 24 10 76l90 473h-324l-297 -522q-41 -73 -74 -96t-104 -23h-114zM588 817h258l88 453h-88z" />
<glyph unicode="&#xc7;" horiz-adv-x="1439" d="M88 604q0 132 42 260.5t120.5 236.5t183 191.5t237 130.5t273.5 47q84 0 169 -16.5t161 -49t124 -89t48 -127.5q0 -34 -12 -90l-17 -82h-186l14 78q10 50 -18.5 88t-80.5 58t-105 30t-101 10q-124 0 -241 -52t-204.5 -140t-140.5 -212t-53 -260q0 -201 117.5 -324.5 t320.5 -123.5q130 0 254.5 45.5t216.5 128.5l93 -160q-104 -95 -263.5 -151t-322.5 -56h-15l-32 -77q49 -9 86 -43t37 -88q0 -50 -22.5 -88.5t-59 -60t-76.5 -32t-82 -10.5q-31 0 -60.5 3.5t-42.5 6.5l-14 4l23 119q39 -14 84 -14q46 0 78 18.5t32 57.5q0 26 -25 39.5 t-69 13.5l-39 -4l74 166q-228 38 -367 206.5t-139 411.5z" />
<glyph unicode="&#xc8;" horiz-adv-x="1175" d="M115 92q0 24 10 76l213 1102h-133l35 176h839q119 0 119 -92q0 -20 -8 -74l-29 -147h-188l12 57q6 35 6 49q0 31 -41 31h-407l-88 -453h508l-35 -176h-508l-74 -387q-8 -36 -8 -47q0 -31 39 -31h422q44 0 53 45l18 92h187l-35 -186q-13 -69 -48.5 -98t-101.5 -29h-639 q-118 0 -118 92zM563 1806h195l102 -260h-147z" />
<glyph unicode="&#xc9;" horiz-adv-x="1175" d="M115 92q0 24 10 76l213 1102h-133l35 176h839q119 0 119 -92q0 -20 -8 -74l-29 -147h-188l12 57q6 35 6 49q0 31 -41 31h-407l-88 -453h508l-35 -176h-508l-74 -387q-8 -36 -8 -47q0 -31 39 -31h422q44 0 53 45l18 92h187l-35 -186q-13 -69 -48.5 -98t-101.5 -29h-639 q-118 0 -118 92zM707 1546l198 260h205l-242 -260h-161z" />
<glyph unicode="&#xca;" horiz-adv-x="1175" d="M115 92q0 24 10 76l213 1102h-133l35 176h839q119 0 119 -92q0 -20 -8 -74l-29 -147h-188l12 57q6 35 6 49q0 31 -41 31h-407l-88 -453h508l-35 -176h-508l-74 -387q-8 -36 -8 -47q0 -31 39 -31h422q44 0 53 45l18 92h187l-35 -186q-13 -69 -48.5 -98t-101.5 -29h-639 q-118 0 -118 92zM512 1546l227 260h183l131 -260h-158l-76 164h-4l-137 -164h-166z" />
<glyph unicode="&#xcb;" horiz-adv-x="1175" d="M115 92q0 24 10 76l213 1102h-133l35 176h839q119 0 119 -92q0 -20 -8 -74l-29 -147h-188l12 57q6 35 6 49q0 31 -41 31h-407l-88 -453h508l-35 -176h-508l-74 -387q-8 -36 -8 -47q0 -31 39 -31h422q44 0 53 45l18 92h187l-35 -186q-13 -69 -48.5 -98t-101.5 -29h-639 q-118 0 -118 92zM537 1599l41 207h151l-41 -207h-151zM874 1599l41 207h152l-41 -207h-152z" />
<glyph unicode="&#xcc;" horiz-adv-x="673" d="M-18 0l32 176h140l213 1094h-140l33 176h477l-32 -176h-142l-213 -1094h139l-32 -176h-475zM295 1806h194l103 -260h-148z" />
<glyph unicode="&#xcd;" horiz-adv-x="673" d="M-18 0l32 176h140l213 1094h-140l33 176h477l-32 -176h-142l-213 -1094h139l-32 -176h-475zM436 1546l199 260h205l-242 -260h-162z" />
<glyph unicode="&#xce;" horiz-adv-x="673" d="M-18 0l32 176h140l213 1094h-140l33 176h477l-32 -176h-142l-213 -1094h139l-32 -176h-475zM242 1546l227 260h182l131 -260h-157l-76 164h-4l-137 -164h-166z" />
<glyph unicode="&#xcf;" horiz-adv-x="673" d="M-18 0l32 176h140l213 1094h-140l33 176h477l-32 -176h-142l-213 -1094h139l-32 -176h-475zM270 1599l41 207h152l-41 -207h-152zM608 1599l41 207h152l-41 -207h-152z" />
<glyph unicode="&#xd0;" horiz-adv-x="1480" d="M117 92q0 24 10 76l90 471h-98l31 168h100l90 463h-133l35 176h567q296 0 462.5 -150.5t166.5 -433.5q0 -174 -65 -332t-178 -275t-277.5 -186t-352.5 -69h-329q-119 0 -119 92zM340 207q0 -31 39 -31h186q146 0 270.5 54.5t208.5 147t131.5 214.5t47.5 256 q0 211 -114.5 316.5t-330.5 105.5h-233l-90 -463h295l-33 -168h-295l-74 -385q-8 -36 -8 -47z" />
<glyph unicode="&#xd1;" horiz-adv-x="1558" d="M-45 0l35 176h86q46 0 55 45l238 1225h180l467 -924q17 -35 38 -84t34 -80l12 -32h4q10 114 26 196l156 799q12 69 47 97t101 28h215l-35 -176h-92q-44 0 -52 -45l-237 -1225h-180l-469 924q-16 35 -36 83.5t-32 79.5l-12 31h-4q-13 -112 -29 -194l-156 -801 q-12 -64 -47 -93.5t-100 -29.5h-213zM629 1548q45 260 248 260q43 0 76 -14.5t52 -35t35.5 -40.5t37 -34.5t46.5 -14.5q42 0 70 40.5t39 92.5h135q-25 -135 -90 -197.5t-158 -62.5q-43 0 -76 14.5t-53 35t-37 40.5t-37.5 34.5t-46.5 14.5q-42 0 -70 -40t-38 -93h-133z" />
<glyph unicode="&#xd2;" horiz-adv-x="1636" d="M84 606q0 115 33.5 226.5t92.5 206t142.5 175t180.5 137t209 88t225 31.5q280 0 455 -172.5t175 -443.5q0 -174 -74 -337t-195.5 -281.5t-283.5 -189.5t-331 -71q-278 0 -453.5 177t-175.5 454zM299 616q0 -198 120 -323t312 -125q120 0 238 54t209 144t147.5 216 t56.5 260q0 195 -120.5 316.5t-311.5 121.5q-122 0 -240.5 -53t-209 -141.5t-146 -212.5t-55.5 -257zM770 1806h195l102 -260h-147z" />
<glyph unicode="&#xd3;" horiz-adv-x="1636" d="M84 606q0 115 33.5 226.5t92.5 206t142.5 175t180.5 137t209 88t225 31.5q280 0 455 -172.5t175 -443.5q0 -174 -74 -337t-195.5 -281.5t-283.5 -189.5t-331 -71q-278 0 -453.5 177t-175.5 454zM299 616q0 -198 120 -323t312 -125q120 0 238 54t209 144t147.5 216 t56.5 260q0 195 -120.5 316.5t-311.5 121.5q-122 0 -240.5 -53t-209 -141.5t-146 -212.5t-55.5 -257zM911 1546l199 260h205l-242 -260h-162z" />
<glyph unicode="&#xd4;" horiz-adv-x="1636" d="M84 606q0 115 33.5 226.5t92.5 206t142.5 175t180.5 137t209 88t225 31.5q280 0 455 -172.5t175 -443.5q0 -174 -74 -337t-195.5 -281.5t-283.5 -189.5t-331 -71q-278 0 -453.5 177t-175.5 454zM299 616q0 -198 120 -323t312 -125q120 0 238 54t209 144t147.5 216 t56.5 260q0 195 -120.5 316.5t-311.5 121.5q-122 0 -240.5 -53t-209 -141.5t-146 -212.5t-55.5 -257zM719 1546l227 260h182l132 -260h-158l-76 164h-4l-137 -164h-166z" />
<glyph unicode="&#xd5;" horiz-adv-x="1636" d="M84 606q0 115 33.5 226.5t92.5 206t142.5 175t180.5 137t209 88t225 31.5q280 0 455 -172.5t175 -443.5q0 -174 -74 -337t-195.5 -281.5t-283.5 -189.5t-331 -71q-278 0 -453.5 177t-175.5 454zM299 616q0 -198 120 -323t312 -125q120 0 238 54t209 144t147.5 216 t56.5 260q0 195 -120.5 316.5t-311.5 121.5q-122 0 -240.5 -53t-209 -141.5t-146 -212.5t-55.5 -257zM641 1548q45 260 248 260q43 0 76 -14.5t52.5 -35t36 -40.5t37 -34.5t46.5 -14.5q42 0 69.5 40t38.5 93h135q-25 -135 -89.5 -197.5t-157.5 -62.5q-43 0 -76 14.5t-53 35 t-37 40.5t-37.5 34.5t-46.5 14.5q-42 0 -70.5 -40t-38.5 -93h-133z" />
<glyph unicode="&#xd6;" horiz-adv-x="1636" d="M84 606q0 115 33.5 226.5t92.5 206t142.5 175t180.5 137t209 88t225 31.5q280 0 455 -172.5t175 -443.5q0 -174 -74 -337t-195.5 -281.5t-283.5 -189.5t-331 -71q-278 0 -453.5 177t-175.5 454zM299 616q0 -198 120 -323t312 -125q120 0 238 54t209 144t147.5 216 t56.5 260q0 195 -120.5 316.5t-311.5 121.5q-122 0 -240.5 -53t-209 -141.5t-146 -212.5t-55.5 -257zM743 1599l41 207h152l-41 -207h-152zM1081 1599l41 207h152l-41 -207h-152z" />
<glyph unicode="&#xd7;" horiz-adv-x="1394" d="M166 113l422 471l-422 471l113 112l417 -467l420 467l113 -112l-424 -471l424 -471l-113 -113l-420 465l-417 -465z" />
<glyph unicode="&#xd8;" horiz-adv-x="1636" d="M84 606q0 115 33.5 226.5t92.5 206t142.5 175t180.5 137t209 88t225 31.5q219 0 376 -110l130 139l88 -74l-129 -139q165 -170 165 -432q0 -174 -74 -337t-195.5 -281.5t-283.5 -189.5t-331 -71q-214 0 -373 111l-129 -141l-90 73l129 142q-166 177 -166 446zM299 616 q0 -179 98 -297l807 885q-113 76 -254 76q-122 0 -240.5 -53t-209 -141.5t-146 -212.5t-55.5 -257zM479 242q110 -74 252 -74q120 0 238 54t209 144t147.5 216t56.5 260q0 168 -96 284z" />
<glyph unicode="&#xd9;" horiz-adv-x="1511" d="M172 403q0 55 12 117l131 668q9 45 9 51q0 31 -41 31h-84l34 176h195q121 0 121 -92q0 -6 -10 -74l-150 -768q-10 -39 -10 -86q0 -124 75.5 -191t211.5 -67q159 0 272 93t145 255l156 805q13 69 48.5 97t101.5 28h215l-35 -176h-92q-44 0 -52 -45l-143 -738 q-45 -232 -213 -372t-414 -140q-224 0 -353.5 116.5t-129.5 311.5zM715 1806h194l103 -260h-148z" />
<glyph unicode="&#xda;" horiz-adv-x="1511" d="M172 403q0 55 12 117l131 668q9 45 9 51q0 31 -41 31h-84l34 176h195q121 0 121 -92q0 -6 -10 -74l-150 -768q-10 -39 -10 -86q0 -124 75.5 -191t211.5 -67q159 0 272 93t145 255l156 805q13 69 48.5 97t101.5 28h215l-35 -176h-92q-44 0 -52 -45l-143 -738 q-45 -232 -213 -372t-414 -140q-224 0 -353.5 116.5t-129.5 311.5zM856 1546l199 260h205l-242 -260h-162z" />
<glyph unicode="&#xdb;" horiz-adv-x="1511" d="M172 403q0 55 12 117l131 668q9 45 9 51q0 31 -41 31h-84l34 176h195q121 0 121 -92q0 -6 -10 -74l-150 -768q-10 -39 -10 -86q0 -124 75.5 -191t211.5 -67q159 0 272 93t145 255l156 805q13 69 48.5 97t101.5 28h215l-35 -176h-92q-44 0 -52 -45l-143 -738 q-45 -232 -213 -372t-414 -140q-224 0 -353.5 116.5t-129.5 311.5zM664 1546l227 260h182l131 -260h-157l-76 164h-4l-138 -164h-165z" />
<glyph unicode="&#xdc;" horiz-adv-x="1511" d="M172 403q0 55 12 117l131 668q9 45 9 51q0 31 -41 31h-84l34 176h195q121 0 121 -92q0 -6 -10 -74l-150 -768q-10 -39 -10 -86q0 -124 75.5 -191t211.5 -67q159 0 272 93t145 255l156 805q13 69 48.5 97t101.5 28h215l-35 -176h-92q-44 0 -52 -45l-143 -738 q-45 -232 -213 -372t-414 -140q-224 0 -353.5 116.5t-129.5 311.5zM688 1599l41 207h152l-41 -207h-152zM1026 1599l41 207h152l-41 -207h-152z" />
<glyph unicode="&#xdd;" horiz-adv-x="1234" d="M143 1270l33 176h92q66 0 99.5 -22.5t62.5 -88.5l154 -364q14 -32 28 -72.5t22 -64.5l7 -25h4q60 90 115 162l289 364q50 66 91.5 88.5t106.5 22.5h125l-35 -176h-47q-54 0 -90 -47l-481 -592l-123 -631h-205l123 631l-252 588q-18 51 -72 51h-47zM709 1546l198 260h205 l-242 -260h-161z" />
<glyph unicode="&#xde;" horiz-adv-x="1214" d="M90 0l240 1225q8 45 -37 45h-88l35 176h206q58 0 84.5 -20.5t26.5 -65.5q0 -21 -6 -45l-23 -115h281q181 0 288 -101t107 -270q0 -155 -77 -280t-201 -192.5t-267 -67.5h-307l-57 -289h-205zM387 465h266q142 0 240 98t98 254q0 98 -60 152.5t-167 54.5h-268z" />
<glyph unicode="&#xdf;" horiz-adv-x="1206" d="M-68 0l35 170h74q44 0 53 43l174 889q17 88 65.5 159t115 116t144 69t157.5 24q164 0 263 -81t99 -207q0 -57 -21.5 -107.5t-53 -84.5t-69 -67.5t-69 -58.5t-53 -56.5t-21.5 -62.5q0 -29 21 -60t52.5 -56.5t68 -59t68 -66t52.5 -79t21 -96.5q0 -93 -54.5 -172 t-144 -124.5t-190.5 -45.5q-87 0 -162.5 15t-108.5 29l-32 15l35 172q11 -7 32 -16.5t87.5 -26t134.5 -16.5q75 0 137.5 43.5t62.5 126.5q0 43 -29.5 84t-71 75.5t-83 70t-71 81t-29.5 94.5q0 42 16 80.5t41.5 68.5t56 58t61 54t56 51.5t41.5 56t16 61.5q0 58 -43 96.5 t-125 38.5q-98 0 -178 -59t-102 -168l-182 -940q-14 -68 -50 -99.5t-104 -31.5h-193z" />
<glyph unicode="&#xe0;" d="M-10 248q0 88 40.5 157.5t107 113.5t158.5 73t187.5 41t200.5 12h51l4 21q9 65 9 84q0 153 -187 153q-65 0 -124.5 -19t-67.5 -61l-11 -59h-188l20 102q10 54 50.5 93.5t99.5 60.5t120.5 31t127.5 10q182 0 270 -77t88 -216q0 -56 -12 -121l-78 -401q-8 -32 -8 -45 q0 -31 37 -31h84l-33 -170h-174q-113 0 -113 84q0 44 21 113h-4q2 0 -12.5 -23t-45 -55.5t-72.5 -65t-107.5 -55.5t-137.5 -23q-129 0 -215 70.5t-86 202.5zM190 276q0 -68 43.5 -107.5t114.5 -39.5q52 0 103 23.5t91.5 61t74.5 82.5t54.5 88t28.5 79l9 37h-50 q-59 0 -116 -5t-123.5 -19.5t-115 -38t-81.5 -65.5t-33 -96zM412 1448h194l103 -260h-148z" />
<glyph unicode="&#xe1;" d="M-10 248q0 88 40.5 157.5t107 113.5t158.5 73t187.5 41t200.5 12h51l4 21q9 65 9 84q0 153 -187 153q-65 0 -124.5 -19t-67.5 -61l-11 -59h-188l20 102q10 54 50.5 93.5t99.5 60.5t120.5 31t127.5 10q182 0 270 -77t88 -216q0 -56 -12 -121l-78 -401q-8 -32 -8 -45 q0 -31 37 -31h84l-33 -170h-174q-113 0 -113 84q0 44 21 113h-4q2 0 -12.5 -23t-45 -55.5t-72.5 -65t-107.5 -55.5t-137.5 -23q-129 0 -215 70.5t-86 202.5zM190 276q0 -68 43.5 -107.5t114.5 -39.5q52 0 103 23.5t91.5 61t74.5 82.5t54.5 88t28.5 79l9 37h-50 q-59 0 -116 -5t-123.5 -19.5t-115 -38t-81.5 -65.5t-33 -96zM555 1188l199 260h204l-241 -260h-162z" />
<glyph unicode="&#xe2;" d="M-10 248q0 88 40.5 157.5t107 113.5t158.5 73t187.5 41t200.5 12h51l4 21q9 65 9 84q0 153 -187 153q-65 0 -124.5 -19t-67.5 -61l-11 -59h-188l20 102q10 54 50.5 93.5t99.5 60.5t120.5 31t127.5 10q182 0 270 -77t88 -216q0 -56 -12 -121l-78 -401q-8 -32 -8 -45 q0 -31 37 -31h84l-33 -170h-174q-113 0 -113 84q0 44 21 113h-4q2 0 -12.5 -23t-45 -55.5t-72.5 -65t-107.5 -55.5t-137.5 -23q-129 0 -215 70.5t-86 202.5zM190 276q0 -68 43.5 -107.5t114.5 -39.5q52 0 103 23.5t91.5 61t74.5 82.5t54.5 88t28.5 79l9 37h-50 q-59 0 -116 -5t-123.5 -19.5t-115 -38t-81.5 -65.5t-33 -96zM360 1188l228 260h182l131 -260h-158l-75 164h-4l-138 -164h-166z" />
<glyph unicode="&#xe3;" d="M-10 248q0 88 40.5 157.5t107 113.5t158.5 73t187.5 41t200.5 12h51l4 21q9 65 9 84q0 153 -187 153q-65 0 -124.5 -19t-67.5 -61l-11 -59h-188l20 102q10 54 50.5 93.5t99.5 60.5t120.5 31t127.5 10q182 0 270 -77t88 -216q0 -56 -12 -121l-78 -401q-8 -32 -8 -45 q0 -31 37 -31h84l-33 -170h-174q-113 0 -113 84q0 44 21 113h-4q2 0 -12.5 -23t-45 -55.5t-72.5 -65t-107.5 -55.5t-137.5 -23q-129 0 -215 70.5t-86 202.5zM190 276q0 -68 43.5 -107.5t114.5 -39.5q52 0 103 23.5t91.5 61t74.5 82.5t54.5 88t28.5 79l9 37h-50 q-59 0 -116 -5t-123.5 -19.5t-115 -38t-81.5 -65.5t-33 -96zM285 1190q45 260 247 260q43 0 76 -14.5t52.5 -35t36 -40.5t37 -34.5t46.5 -14.5q42 0 70 40.5t39 92.5h135q-25 -135 -90 -197.5t-158 -62.5q-43 0 -76 14.5t-53 35t-37 40.5t-37.5 34.5t-46.5 14.5 q-42 0 -70 -40t-38 -93h-133z" />
<glyph unicode="&#xe4;" d="M-10 248q0 88 40.5 157.5t107 113.5t158.5 73t187.5 41t200.5 12h51l4 21q9 65 9 84q0 153 -187 153q-65 0 -124.5 -19t-67.5 -61l-11 -59h-188l20 102q10 54 50.5 93.5t99.5 60.5t120.5 31t127.5 10q182 0 270 -77t88 -216q0 -56 -12 -121l-78 -401q-8 -32 -8 -45 q0 -31 37 -31h84l-33 -170h-174q-113 0 -113 84q0 44 21 113h-4q2 0 -12.5 -23t-45 -55.5t-72.5 -65t-107.5 -55.5t-137.5 -23q-129 0 -215 70.5t-86 202.5zM190 276q0 -68 43.5 -107.5t114.5 -39.5q52 0 103 23.5t91.5 61t74.5 82.5t54.5 88t28.5 79l9 37h-50 q-59 0 -116 -5t-123.5 -19.5t-115 -38t-81.5 -65.5t-33 -96zM385 1241l41 207h152l-41 -207h-152zM723 1241l41 207h151l-41 -207h-151z" />
<glyph unicode="&#xe5;" d="M-10 248q0 88 40.5 157.5t107 113.5t158.5 73t187.5 41t200.5 12h51l4 21q9 65 9 84q0 153 -187 153q-65 0 -124.5 -19t-67.5 -61l-11 -59h-188l20 102q10 54 50.5 93.5t99.5 60.5t120.5 31t127.5 10q182 0 270 -77t88 -216q0 -56 -12 -121l-78 -401q-8 -32 -8 -45 q0 -31 37 -31h84l-33 -170h-174q-113 0 -113 84q0 44 21 113h-4q2 0 -12.5 -23t-45 -55.5t-72.5 -65t-107.5 -55.5t-137.5 -23q-129 0 -215 70.5t-86 202.5zM190 276q0 -68 43.5 -107.5t114.5 -39.5q52 0 103 23.5t91.5 61t74.5 82.5t54.5 88t28.5 79l9 37h-50 q-59 0 -116 -5t-123.5 -19.5t-115 -38t-81.5 -65.5t-33 -96zM487 1294q0 78 59.5 127t133.5 49q64 0 109 -36.5t45 -98.5q0 -76 -60 -125t-135 -49q-64 0 -108 36.5t-44 96.5zM590 1298q0 -25 14.5 -39t40.5 -14q37 0 61.5 25t24.5 63q0 25 -15 40.5t-42 15.5 q-33 0 -58.5 -26t-25.5 -65z" />
<glyph unicode="&#xe6;" horiz-adv-x="1740" d="M-8 248q0 96 44.5 168.5t111 113.5t158 67t170 34t163.5 8h92q12 64 12 98q0 81 -45 123.5t-135 42.5q-27 0 -55.5 -3t-60.5 -11t-54 -25t-26 -41l-11 -59h-188l20 102q11 57 54 97.5t104.5 60.5t120.5 28.5t121 8.5q234 0 301 -174h4q152 174 385 174q193 0 295 -104 t102 -281q0 -36 -7.5 -81.5t-15.5 -72.5l-7 -28h-748q-6 -31 -6 -66q0 -131 75.5 -208t211.5 -77q50 0 102 12.5t90.5 29.5t70 34.5t47.5 30.5l17 12l58 -151q-7 -6 -20 -15t-55.5 -32.5t-86 -41.5t-108 -32.5t-126.5 -14.5q-160 0 -271 68.5t-155 187.5h-4 q-9 -20 -26.5 -46t-55 -65t-83 -69.5t-114.5 -53t-145 -22.5q-136 0 -228.5 73.5t-92.5 199.5zM195 270q0 -59 41.5 -97t123.5 -38q60 0 118.5 30t101.5 78t74 106t44 116l7 29h-95q-42 0 -81 -3t-89.5 -10.5t-91.5 -23.5t-77 -39.5t-56 -61.5t-20 -86zM934 639h541 q2 32 2 57q0 100 -56.5 153.5t-146.5 53.5q-116 0 -205.5 -68.5t-134.5 -195.5z" />
<glyph unicode="&#xe7;" horiz-adv-x="1085" d="M47 434q0 168 84.5 312.5t229 229.5t311.5 85q48 0 99 -7t105 -24.5t94 -44t61.5 -70.5t10.5 -98l-16 -90h-176l8 43q7 39 -25 68t-78 41t-96 12q-107 0 -201.5 -59t-151 -160.5t-56.5 -218.5q0 -135 77 -218t224 -83q58 0 113.5 13t93.5 31t67.5 36t43.5 31l14 13 l57 -157q-6 -6 -16.5 -15.5t-49 -34.5t-82.5 -44t-115 -34.5t-147 -15.5h-28l-33 -77q49 -9 86 -43t37 -88q0 -50 -22.5 -88.5t-59 -60t-76.5 -32t-82 -10.5q-31 0 -60 3.5t-42 6.5l-14 4l22 119q39 -14 84 -14q46 0 78.5 18.5t32.5 57.5q0 26 -25.5 39.5t-69.5 13.5l-39 -4 l76 170q-166 35 -257 153.5t-91 290.5z" />
<glyph unicode="&#xe8;" horiz-adv-x="1105" d="M45 418q0 171 77.5 318t217 236t309.5 89q193 0 293 -104.5t100 -278.5q0 -37 -9 -83t-18 -73l-9 -28h-752q-6 -35 -6 -68q0 -124 78 -201.5t217 -77.5q50 0 102 12.5t91 29.5t71 34.5t49 30.5l16 12l58 -155q-7 -6 -20 -15t-55.5 -32.5t-86.5 -41.5t-109.5 -32.5 t-128.5 -14.5q-224 0 -354.5 123t-130.5 320zM291 639h547q6 26 6 55q0 101 -55 155t-146 54q-116 0 -210.5 -70t-141.5 -194zM469 1448h195l102 -260h-148z" />
<glyph unicode="&#xe9;" horiz-adv-x="1105" d="M45 418q0 171 77.5 318t217 236t309.5 89q193 0 293 -104.5t100 -278.5q0 -37 -9 -83t-18 -73l-9 -28h-752q-6 -35 -6 -68q0 -124 78 -201.5t217 -77.5q50 0 102 12.5t91 29.5t71 34.5t49 30.5l16 12l58 -155q-7 -6 -20 -15t-55.5 -32.5t-86.5 -41.5t-109.5 -32.5 t-128.5 -14.5q-224 0 -354.5 123t-130.5 320zM291 639h547q6 26 6 55q0 101 -55 155t-146 54q-116 0 -210.5 -70t-141.5 -194zM610 1188l199 260h205l-242 -260h-162z" />
<glyph unicode="&#xea;" horiz-adv-x="1105" d="M45 418q0 171 77.5 318t217 236t309.5 89q193 0 293 -104.5t100 -278.5q0 -37 -9 -83t-18 -73l-9 -28h-752q-6 -35 -6 -68q0 -124 78 -201.5t217 -77.5q50 0 102 12.5t91 29.5t71 34.5t49 30.5l16 12l58 -155q-7 -6 -20 -15t-55.5 -32.5t-86.5 -41.5t-109.5 -32.5 t-128.5 -14.5q-224 0 -354.5 123t-130.5 320zM291 639h547q6 26 6 55q0 101 -55 155t-146 54q-116 0 -210.5 -70t-141.5 -194zM416 1188l227 260h182l131 -260h-157l-76 164h-4l-137 -164h-166z" />
<glyph unicode="&#xeb;" horiz-adv-x="1105" d="M45 418q0 171 77.5 318t217 236t309.5 89q193 0 293 -104.5t100 -278.5q0 -37 -9 -83t-18 -73l-9 -28h-752q-6 -35 -6 -68q0 -124 78 -201.5t217 -77.5q50 0 102 12.5t91 29.5t71 34.5t49 30.5l16 12l58 -155q-7 -6 -20 -15t-55.5 -32.5t-86.5 -41.5t-109.5 -32.5 t-128.5 -14.5q-224 0 -354.5 123t-130.5 320zM291 639h547q6 26 6 55q0 101 -55 155t-146 54q-116 0 -210.5 -70t-141.5 -194zM442 1241l41 207h152l-41 -207h-152zM780 1241l41 207h152l-41 -207h-152z" />
<glyph unicode="&#xec;" horiz-adv-x="559" d="M84 94q0 28 4 51l127 646q6 30 6 45q0 30 -37 30h-84l33 170h189q61 0 88.5 -21.5t27.5 -70.5q0 -15 -8 -61l-127 -650q-4 -20 -4 -32q0 -31 37 -31h84l-33 -170h-190q-113 0 -113 94zM150 1448h194l102 -260h-147z" />
<glyph unicode="&#xed;" horiz-adv-x="559" d="M84 94q0 28 4 51l127 646q6 30 6 45q0 30 -37 30h-84l33 170h189q61 0 88.5 -21.5t27.5 -70.5q0 -15 -8 -61l-127 -650q-4 -20 -4 -32q0 -31 37 -31h84l-33 -170h-190q-113 0 -113 94zM289 1188l198 260h205l-241 -260h-162z" />
<glyph unicode="&#xee;" horiz-adv-x="559" d="M84 94q0 28 4 51l127 646q6 30 6 45q0 30 -37 30h-84l33 170h189q61 0 88.5 -21.5t27.5 -70.5q0 -15 -8 -61l-127 -650q-4 -20 -4 -32q0 -31 37 -31h84l-33 -170h-190q-113 0 -113 94zM96 1188l228 260h182l131 -260h-158l-76 164h-4l-137 -164h-166z" />
<glyph unicode="&#xef;" horiz-adv-x="559" d="M84 94q0 28 4 51l127 646q6 30 6 45q0 30 -37 30h-84l33 170h189q61 0 88.5 -21.5t27.5 -70.5q0 -15 -8 -61l-127 -650q-4 -20 -4 -32q0 -31 37 -31h84l-33 -170h-190q-113 0 -113 94zM123 1241l41 207h151l-41 -207h-151zM461 1241l41 207h151l-41 -207h-151z" />
<glyph unicode="&#xf0;" horiz-adv-x="1163" d="M41 391q0 102 40.5 202t112.5 180.5t183 130.5t241 50q48 0 92 -9.5t72 -23.5t49.5 -28t30.5 -23l10 -10h5q-37 174 -183 291l-397 -160l2 111l291 119q-119 67 -256 104l82 148q225 -60 383 -173l315 127v-110l-229 -92q205 -202 205 -506q0 -74 -15.5 -154.5t-46 -165 t-81.5 -160t-116 -135t-157 -94.5t-197 -35q-106 0 -190.5 33.5t-137.5 91t-80.5 132t-27.5 159.5zM244 395q0 -108 59.5 -178t173.5 -70q85 0 160.5 42t124.5 107.5t77.5 141.5t28.5 146q0 96 -63.5 153.5t-177.5 57.5q-163 0 -273 -118.5t-110 -281.5z" />
<glyph unicode="&#xf1;" horiz-adv-x="1284" d="M59 0l154 793q6 21 6 41q0 32 -39 32h-80l31 170h188q111 0 111 -92q0 -31 -24 -129h4q20 30 46 60.5t67 65t86.5 60.5t107 43t125.5 17q145 0 220 -73t75 -208q0 -54 -13 -127l-82 -420q-4 -20 -4 -32q0 -31 37 -31h84l-33 -170h-190q-117 0 -117 94q0 23 6 47l95 480 q10 55 10 100q0 158 -160 158q-100 0 -191.5 -60.5t-149.5 -150t-77 -185.5l-94 -483h-199zM426 1190q45 260 248 260q43 0 76 -14.5t52.5 -35t36 -40.5t37 -34.5t46.5 -14.5q42 0 69.5 40t38.5 93h135q-25 -135 -89.5 -197.5t-157.5 -62.5q-43 0 -76 14.5t-53 35t-37 40.5 t-37.5 34.5t-46.5 14.5q-42 0 -70.5 -40t-38.5 -93h-133z" />
<glyph unicode="&#xf2;" horiz-adv-x="1257" d="M43 432q0 130 55 248t145 200.5t209.5 131.5t245.5 49q212 0 346 -126t134 -327q0 -175 -94 -322t-244.5 -229t-317.5 -82q-212 0 -345.5 127t-133.5 330zM246 440q0 -130 81 -211.5t212 -81.5q107 0 207 58.5t164.5 164t64.5 228.5q0 129 -82 210t-211 81 q-108 0 -208 -58.5t-164 -163t-64 -227.5zM518 1448h195l102 -260h-147z" />
<glyph unicode="&#xf3;" horiz-adv-x="1257" d="M43 432q0 130 55 248t145 200.5t209.5 131.5t245.5 49q212 0 346 -126t134 -327q0 -175 -94 -322t-244.5 -229t-317.5 -82q-212 0 -345.5 127t-133.5 330zM246 440q0 -130 81 -211.5t212 -81.5q107 0 207 58.5t164.5 164t64.5 228.5q0 129 -82 210t-211 81 q-108 0 -208 -58.5t-164 -163t-64 -227.5zM662 1188l198 260h205l-242 -260h-161z" />
<glyph unicode="&#xf4;" horiz-adv-x="1257" d="M43 432q0 130 55 248t145 200.5t209.5 131.5t245.5 49q212 0 346 -126t134 -327q0 -175 -94 -322t-244.5 -229t-317.5 -82q-212 0 -345.5 127t-133.5 330zM246 440q0 -130 81 -211.5t212 -81.5q107 0 207 58.5t164.5 164t64.5 228.5q0 129 -82 210t-211 81 q-108 0 -208 -58.5t-164 -163t-64 -227.5zM467 1188l227 260h183l131 -260h-158l-76 164h-4l-137 -164h-166z" />
<glyph unicode="&#xf5;" horiz-adv-x="1257" d="M43 432q0 130 55 248t145 200.5t209.5 131.5t245.5 49q212 0 346 -126t134 -327q0 -175 -94 -322t-244.5 -229t-317.5 -82q-212 0 -345.5 127t-133.5 330zM246 440q0 -130 81 -211.5t212 -81.5q107 0 207 58.5t164.5 164t64.5 228.5q0 129 -82 210t-211 81 q-108 0 -208 -58.5t-164 -163t-64 -227.5zM391 1190q45 260 248 260q43 0 76 -14.5t52.5 -35t36 -40.5t37 -34.5t46.5 -14.5q42 0 69.5 40t38.5 93h135q-25 -135 -89.5 -197.5t-157.5 -62.5q-43 0 -76 14.5t-53 35t-37 40.5t-37.5 34.5t-46.5 14.5q-42 0 -70.5 -40 t-38.5 -93h-133z" />
<glyph unicode="&#xf6;" horiz-adv-x="1257" d="M43 432q0 130 55 248t145 200.5t209.5 131.5t245.5 49q212 0 346 -126t134 -327q0 -175 -94 -322t-244.5 -229t-317.5 -82q-212 0 -345.5 127t-133.5 330zM246 440q0 -130 81 -211.5t212 -81.5q107 0 207 58.5t164.5 164t64.5 228.5q0 129 -82 210t-211 81 q-108 0 -208 -58.5t-164 -163t-64 -227.5zM492 1241l40 207h152l-41 -207h-151zM829 1241l41 207h152l-41 -207h-152z" />
<glyph unicode="&#xf7;" horiz-adv-x="1255" d="M102 504v160h1035v-160h-1035zM522 90v186h193v-186h-193zM522 891v186h193v-186h-193z" />
<glyph unicode="&#xf8;" horiz-adv-x="1255" d="M43 432q0 130 55 248t144 200.5t205.5 131.5t236.5 49q166 0 293 -78l110 119l80 -70l-110 -119q119 -133 119 -305q0 -174 -93.5 -321.5t-240 -229.5t-305.5 -82q-155 0 -279 70l-111 -119l-81 70l106 115q-129 136 -129 321zM246 440q0 -102 63 -182l537 584 q-70 47 -164 47q-108 0 -208 -58.5t-164 -163t-64 -227.5zM387 186q70 -39 152 -39q107 0 206.5 58.5t163.5 163.5t64 229q0 88 -55 164z" />
<glyph unicode="&#xf9;" horiz-adv-x="1294" d="M109 866l32 170h193q115 0 115 -94q0 -16 -7 -47l-92 -477q-12 -52 -12 -103q0 -155 156 -155q99 0 190 65.5t149 161.5t78 197l88 452h199l-154 -792q-6 -18 -6 -41q0 -33 39 -33h82l-33 -170h-188q-111 0 -111 92q0 23 25 131h-4q-24 -39 -60.5 -78t-89.5 -79.5 t-125.5 -65.5t-150.5 -25q-141 0 -216 73t-75 208q0 58 12 129l82 418q6 30 6 35q0 28 -38 28h-84zM530 1448h195l102 -260h-147z" />
<glyph unicode="&#xfa;" horiz-adv-x="1294" d="M109 866l32 170h193q115 0 115 -94q0 -16 -7 -47l-92 -477q-12 -52 -12 -103q0 -155 156 -155q99 0 190 65.5t149 161.5t78 197l88 452h199l-154 -792q-6 -18 -6 -41q0 -33 39 -33h82l-33 -170h-188q-111 0 -111 92q0 23 25 131h-4q-24 -39 -60.5 -78t-89.5 -79.5 t-125.5 -65.5t-150.5 -25q-141 0 -216 73t-75 208q0 58 12 129l82 418q6 30 6 35q0 28 -38 28h-84zM672 1188l198 260h205l-241 -260h-162z" />
<glyph unicode="&#xfb;" horiz-adv-x="1294" d="M109 866l32 170h193q115 0 115 -94q0 -16 -7 -47l-92 -477q-12 -52 -12 -103q0 -155 156 -155q99 0 190 65.5t149 161.5t78 197l88 452h199l-154 -792q-6 -18 -6 -41q0 -33 39 -33h82l-33 -170h-188q-111 0 -111 92q0 23 25 131h-4q-24 -39 -60.5 -78t-89.5 -79.5 t-125.5 -65.5t-150.5 -25q-141 0 -216 73t-75 208q0 58 12 129l82 418q6 30 6 35q0 28 -38 28h-84zM477 1188l228 260h182l131 -260h-158l-76 164h-4l-137 -164h-166z" />
<glyph unicode="&#xfc;" horiz-adv-x="1294" d="M109 866l32 170h193q115 0 115 -94q0 -16 -7 -47l-92 -477q-12 -52 -12 -103q0 -155 156 -155q99 0 190 65.5t149 161.5t78 197l88 452h199l-154 -792q-6 -18 -6 -41q0 -33 39 -33h82l-33 -170h-188q-111 0 -111 92q0 23 25 131h-4q-24 -39 -60.5 -78t-89.5 -79.5 t-125.5 -65.5t-150.5 -25q-141 0 -216 73t-75 208q0 58 12 129l82 418q6 30 6 35q0 28 -38 28h-84zM504 1241l41 207h151l-41 -207h-151zM842 1241l41 207h151l-41 -207h-151z" />
<glyph unicode="&#xfd;" horiz-adv-x="1110" d="M-172 -328l86 142l3 -4l7 -7l10 -10t13.5 -11.5t16.5 -12t20 -11.5t23.5 -9t26.5 -6.5t29 -2.5q113 0 207 151l74 117l-194 817q-6 24 -18.5 32.5t-39.5 8.5h-24l32 170h133q47 0 69.5 -24.5t33.5 -79.5l121 -584q4 -24 7.5 -55t5.5 -51l1 -19h4q28 72 57 125l330 584 q35 60 72 82t100 22h127l-33 -170h-26q-26 0 -43 -8.5t-31 -32.5l-608 -1018q-69 -118 -162.5 -177.5t-200.5 -59.5q-39 0 -77 10.5t-64 25.5t-47 30t-31 26zM567 1188l199 260h205l-242 -260h-162z" />
<glyph unicode="&#xfe;" horiz-adv-x="1210" d="M-51 -410l313 1610q6 30 6 45q0 31 -37 31h-84l33 170h191q59 0 86.5 -21.5t27.5 -70.5q0 -14 -8 -60l-53 -278q-22 -99 -33 -131h4q59 77 147 126.5t201 49.5q182 0 283.5 -115.5t101.5 -318.5q0 -138 -48 -261t-126.5 -207.5t-181 -134t-209.5 -49.5q-104 0 -186 47 t-121 134h-4q-4 -44 -14 -97l-91 -469h-198zM311 418q0 -119 59 -195t171 -76q69 0 137 33t123.5 91t90 147.5t34.5 193.5q0 132 -62 203.5t-172 71.5q-103 0 -192 -68t-139 -176t-50 -225z" />
<glyph unicode="&#xff;" horiz-adv-x="1110" d="M-172 -328l86 142l3 -4l7 -7l10 -10t13.5 -11.5t16.5 -12t20 -11.5t23.5 -9t26.5 -6.5t29 -2.5q113 0 207 151l74 117l-194 817q-6 24 -18.5 32.5t-39.5 8.5h-24l32 170h133q47 0 69.5 -24.5t33.5 -79.5l121 -584q4 -24 7.5 -55t5.5 -51l1 -19h4q28 72 57 125l330 584 q35 60 72 82t100 22h127l-33 -170h-26q-26 0 -43 -8.5t-31 -32.5l-608 -1018q-69 -118 -162.5 -177.5t-200.5 -59.5q-39 0 -77 10.5t-64 25.5t-47 30t-31 26zM399 1241l41 207h152l-41 -207h-152zM737 1241l41 207h152l-41 -207h-152z" />
<glyph unicode="&#x152;" horiz-adv-x="1937" d="M84 598q0 173 72 333.5t190 276.5t276.5 186t325.5 70q64 0 158 -9t133 -9h600q121 0 121 -92q0 -6 -10 -74l-29 -147h-188l12 57q8 46 8 49q0 31 -43 31h-405l-88 -453h505l-34 -176h-508l-74 -385q-8 -40 -8 -49q0 -31 39 -31h422q44 0 53 45l18 92h187l-35 -186 q-12 -69 -48 -98t-102 -29h-649q-33 0 -118.5 -9t-137.5 -9q-289 0 -466 172.5t-177 443.5zM295 598q0 -198 119.5 -321t322.5 -123q36 0 73 4t56 8l19 4l215 1108q-62 14 -144 14q-131 0 -253 -55.5t-211.5 -148.5t-143 -221.5t-53.5 -268.5z" />
<glyph unicode="&#x153;" horiz-adv-x="2021" d="M45 432q0 173 91.5 319t239 228t312.5 82q145 0 252 -65.5t162 -180.5h4q79 114 197.5 180t257.5 66q195 0 296 -104.5t101 -278.5q0 -37 -9 -83t-17 -73l-9 -28h-756q-6 -33 -6 -70q0 -121 78.5 -199t218.5 -78q79 0 161.5 30.5t125.5 60.5l43 30l57 -157q-7 -6 -20 -15 t-55 -32.5t-85.5 -41.5t-108.5 -32.5t-128 -14.5q-154 0 -264 66t-160 186h-4q-88 -117 -218 -184.5t-267 -67.5q-218 0 -354 127t-136 330zM248 440q0 -130 81 -211.5t212 -81.5q107 0 206.5 58.5t163.5 163.5t64 229q0 129 -82 210t-211 81q-112 0 -211.5 -58.5t-161 -163 t-61.5 -227.5zM1204 639h551q4 26 4 55q0 101 -54.5 155t-145.5 54q-116 0 -212.5 -70t-142.5 -194z" />
<glyph unicode="&#x178;" horiz-adv-x="1234" d="M143 1270l33 176h92q66 0 99.5 -22.5t62.5 -88.5l154 -364q14 -32 28 -72.5t22 -64.5l7 -25h4q60 90 115 162l289 364q50 66 91.5 88.5t106.5 22.5h125l-35 -176h-47q-54 0 -90 -47l-481 -592l-123 -631h-205l123 631l-252 588q-18 51 -72 51h-47zM541 1599l41 207h151 l-41 -207h-151zM879 1599l41 207h151l-41 -207h-151z" />
<glyph unicode="&#x2c6;" horiz-adv-x="993" d="M197 1546l227 260h182l131 -260h-157l-76 164h-4l-138 -164h-165z" />
<glyph unicode="&#x2dc;" horiz-adv-x="1062" d="M164 1548q45 260 248 260q43 0 76 -14.5t52 -35t35.5 -40.5t37 -34.5t46.5 -14.5q42 0 70 40.5t39 92.5h135q-25 -135 -90 -197.5t-158 -62.5q-43 0 -76 14.5t-52.5 35t-36.5 40.5t-37.5 34.5t-46.5 14.5q-42 0 -70.5 -40t-38.5 -93h-133z" />
<glyph unicode="&#x2000;" horiz-adv-x="914" />
<glyph unicode="&#x2001;" horiz-adv-x="1829" />
<glyph unicode="&#x2002;" horiz-adv-x="914" />
<glyph unicode="&#x2003;" horiz-adv-x="1829" />
<glyph unicode="&#x2004;" horiz-adv-x="609" />
<glyph unicode="&#x2005;" horiz-adv-x="457" />
<glyph unicode="&#x2006;" horiz-adv-x="304" />
<glyph unicode="&#x2007;" horiz-adv-x="304" />
<glyph unicode="&#x2008;" horiz-adv-x="228" />
<glyph unicode="&#x2009;" horiz-adv-x="365" />
<glyph unicode="&#x200a;" horiz-adv-x="101" />
<glyph unicode="&#x2010;" horiz-adv-x="860" d="M109 496l32 176h598l-32 -176h-598z" />
<glyph unicode="&#x2011;" horiz-adv-x="860" d="M109 496l32 176h598l-32 -176h-598z" />
<glyph unicode="&#x2012;" horiz-adv-x="860" d="M109 496l32 176h598l-32 -176h-598z" />
<glyph unicode="&#x2013;" horiz-adv-x="1353" d="M117 504l30 160h1078l-31 -160h-1077z" />
<glyph unicode="&#x2014;" horiz-adv-x="1763" d="M117 504l30 160h1487l-30 -160h-1487z" />
<glyph unicode="&#x2018;" horiz-adv-x="434" d="M174 1069l211 399h143l-166 -399h-188z" />
<glyph unicode="&#x2019;" horiz-adv-x="415" d="M176 1071l166 399h188l-211 -399h-143z" />
<glyph unicode="&#x201a;" horiz-adv-x="477" d="M-78 -184l166 399h188l-210 -399h-144z" />
<glyph unicode="&#x201c;" horiz-adv-x="716" d="M174 1069l211 399h143l-166 -399h-188zM459 1069l211 399h141l-164 -399h-188z" />
<glyph unicode="&#x201d;" horiz-adv-x="700" d="M176 1071l166 399h188l-211 -399h-143zM461 1071l164 399h188l-209 -399h-143z" />
<glyph unicode="&#x201e;" horiz-adv-x="759" d="M-78 -184l166 399h188l-210 -399h-144zM207 -184l164 399h188l-209 -399h-143z" />
<glyph unicode="&#x2022;" horiz-adv-x="819" d="M88 596q0 132 93 224.5t225 92.5q131 0 223 -92.5t92 -224.5t-92 -224.5t-223 -92.5q-132 0 -225 92.5t-93 224.5z" />
<glyph unicode="&#x2026;" horiz-adv-x="1529" d="M14 0l41 211h203l-39 -211h-205zM547 0l39 211h205l-41 -211h-203zM1079 0l39 211h203l-39 -211h-203z" />
<glyph unicode="&#x202f;" horiz-adv-x="365" />
<glyph unicode="&#x2039;" horiz-adv-x="659" d="M35 582l391 417h209l-410 -430l260 -411h-188z" />
<glyph unicode="&#x203a;" horiz-adv-x="663" d="M16 158l410 430l-260 411h188l262 -424l-391 -417h-209z" />
<glyph unicode="&#x205f;" horiz-adv-x="457" />
<glyph unicode="&#x20ac;" horiz-adv-x="1218" d="M63 518l25 125h115q3 73 26 176h-108l24 127h125q104 234 314 379t458 145q58 0 116 -8t87 -16l29 -8l-78 -168q-76 20 -160 20q-169 0 -314.5 -93t-225.5 -251h573l-51 -127h-578q-23 -76 -30 -176h540l-51 -125h-477q16 -161 119.5 -260.5t283.5 -99.5q45 0 93.5 7 t73.5 14l26 7l4 -180q-90 -31 -211 -31q-254 0 -420 149t-186 394h-142z" />
<glyph unicode="&#x2122;" horiz-adv-x="2203" d="M250 1229v125q0 54 19.5 73t76.5 19h586q56 0 76 -19t20 -73v-125h-135v61q0 19 -19 19h-157v-764h-156v764h-155q-19 0 -19 -19v-61h-137zM1036 545v137h47q20 0 23 18l59 746h142l213 -471q7 -16 14 -37.5t10 -35.5l4 -13h4q13 49 27 86l213 471h143l60 -746 q0 -18 20 -18h49v-137h-120q-56 0 -76.5 18.5t-24.5 73.5l-35 446l2 62h-4l-194 -434h-125l-195 434h-4l2 -62l-35 -446q-3 -55 -23.5 -73.5t-76.5 -18.5h-119z" />
<glyph unicode="&#x25fc;" horiz-adv-x="1034" d="M0 0v1034h1034v-1034h-1034z" />
</font>
</defs>
</svg>
